<?xml version="1.0" encoding="UTF-8" standalone="no"?>
<!-- Created with Inkscape (http://www.inkscape.org/) -->

<svg
   xmlns:dc="http://purl.org/dc/elements/1.1/"
   xmlns:cc="http://creativecommons.org/ns#"
   xmlns:rdf="http://www.w3.org/1999/02/22-rdf-syntax-ns#"
   xmlns:svg="http://www.w3.org/2000/svg"
   xmlns="http://www.w3.org/2000/svg"
   xmlns:sodipodi="http://sodipodi.sourceforge.net/DTD/sodipodi-0.dtd"
   xmlns:inkscape="http://www.inkscape.org/namespaces/inkscape"
   width="247.92078mm"
   height="281.34967mm"
   viewBox="0 0 247.92078 281.34967"
   version="1.1"
   id="svg8"
   inkscape:version="0.92.2 (5c3e80d, 2017-08-06)"
   sodipodi:docname="icon.svg"
   inkscape:export-filename="D:\JubalTron9000\Documents\GitHub\iubalus.github.io\icon.png"
   inkscape:export-xdpi="96"
   inkscape:export-ydpi="96">
  <defs
     id="defs2" />
  <sodipodi:namedview
     id="base"
     pagecolor="#ffffff"
     bordercolor="#666666"
     borderopacity="1.0"
     inkscape:pageopacity="0.0"
     inkscape:pageshadow="2"
     inkscape:zoom="0.35"
     inkscape:cx="510.81214"
     inkscape:cy="528.97131"
     inkscape:document-units="mm"
     inkscape:current-layer="layer1"
     showgrid="false"
     inkscape:window-width="958"
     inkscape:window-height="1008"
     inkscape:window-x="953"
     inkscape:window-y="0"
     inkscape:window-maximized="0"
     inkscape:snap-page="false"
     fit-margin-top="0"
     fit-margin-left="27.4"
     fit-margin-right="0"
     fit-margin-bottom="0"
     inkscape:pagecheckerboard="true" />
  <metadata
     id="metadata5">
    <rdf:RDF>
      <cc:Work
         rdf:about="">
        <dc:format>image/svg+xml</dc:format>
        <dc:type
           rdf:resource="http://purl.org/dc/dcmitype/StillImage" />
        <dc:title></dc:title>
      </cc:Work>
    </rdf:RDF>
  </metadata>
  <g
     inkscape:label="Layer 1"
     inkscape:groupmode="layer"
     id="layer1"
     transform="translate(-6.5417046,-7.4406416)">
    <g
       id="g826"
       transform="matrix(1.3663368,0,0,1.3826449,-14.083574,-55.255088)">
      <path
         style="fill:#d6d6d6;fill-opacity:1;stroke-width:0.55113423"
         d="m 86.036993,248.60113 c -23.625564,-3.8004 -42.152412,-23.68441 -45.21469,-48.52683 -0.736671,-5.97618 -1.421195,-8.05337 -3.325725,-10.09197 -1.983479,-2.12309 -3.966979,-5.04503 -5.328354,-7.8493 -0.673652,-1.38765 -1.623057,-2.991 -2.10979,-3.56302 -0.486732,-0.57201 -0.821234,-1.14089 -0.743337,-1.26417 0.0779,-0.12328 -0.216934,-1.11225 -0.65518,-2.19771 -0.438247,-1.08546 -0.96041,-2.91343 -1.160363,-4.06214 -0.199953,-1.14872 -0.604331,-2.40261 -0.898617,-2.78642 -0.294286,-0.38382 -0.407219,-1.20379 -0.250962,-1.82216 0.156258,-0.61838 0.06313,-1.12432 -0.206941,-1.12432 -0.754721,0 -0.633009,-69.257803 0.130116,-74.039897 0.341639,-2.140868 0.783139,-3.892487 0.981111,-3.892487 0.197972,0 0.672024,-1.260129 1.053449,-2.800286 0.381425,-1.540158 1.278014,-3.691663 1.99242,-4.781122 0.714405,-1.089459 1.699007,-2.781508 2.188003,-3.760108 0.488996,-0.9786 1.223161,-2.125005 1.631479,-2.547566 0.408318,-0.422561 0.742395,-0.965729 0.742395,-1.207041 0,-0.241311 0.55782,-1.06164 1.2396,-1.822955 0.681779,-0.761314 1.734964,-2.035932 2.340411,-2.832483 1.094003,-1.439315 10.3917,-9.619036 12.42311,-10.929327 0.584377,-0.376932 1.915785,-1.120684 2.958684,-1.652782 1.042899,-0.532097 2.018078,-1.106745 2.167063,-1.276995 0.643895,-0.735794 4.453619,-2.261623 4.913102,-1.967741 0.277508,0.177492 0.504557,0.04063 0.504557,-0.30413 0,-0.344763 0.222974,-0.484231 0.495494,-0.309927 0.272519,0.174302 0.580875,0.05183 0.68523,-0.272156 0.104355,-0.323988 0.734667,-0.63155 1.400687,-0.68347 0.66602,-0.05192 1.21095,-0.335059 1.21095,-0.629197 0,-0.294138 0.144169,-0.385601 0.320368,-0.203251 0.176204,0.182351 1.456125,-0.03288 2.84427,-0.478288 1.388151,-0.44541 5.290821,-1.309453 8.672604,-1.920096 5.475991,-0.98879 8.656037,-1.110261 29.066083,-1.110261 20.41004,0 23.59009,0.121471 29.06608,1.110261 9.98101,1.802255 17.41282,4.683635 26.46492,10.260696 4.74207,2.921625 13.20369,10.789619 15.05531,13.999117 0.48923,0.848005 1.03907,1.541828 1.22186,1.541828 0.18279,0 0.90329,1.261495 1.6011,2.803323 0.69781,1.541828 1.44255,2.803323 1.65498,2.803323 0.21243,0 0.942,1.45072 1.62127,3.223822 0.67927,1.773102 1.41717,3.47612 1.63978,3.784486 0.22262,0.308365 0.79225,2.505346 1.26584,4.882179 0.73274,3.677366 0.86109,9.499054 0.86109,39.057031 0,36.03454 -0.22936,40.38626 -2.3493,44.57539 -0.44856,0.88637 -0.68687,1.95865 -0.52958,2.38283 0.15728,0.42418 0.0651,0.77124 -0.20492,0.77124 -0.27,0 -0.79948,0.88313 -1.17664,1.96252 -0.37715,1.07938 -1.23836,2.65625 -1.91379,3.50415 -0.67544,0.8479 -1.74472,2.55083 -2.37619,3.78429 -1.31397,2.56661 -3.63899,11.41929 -4.19661,15.97894 -0.20742,1.69601 -0.98449,5.10205 -1.72683,7.56898 -6.1325,20.37942 -23.1104,35.48853 -43.49509,38.70751 -6.59992,1.0422 -36.086238,1.04753 -42.550507,0.008 z m -5.937537,-54.33608 c 9.677373,-2.67923 17.015164,-10.9969 18.868317,-21.38796 l 0.699041,-3.91968 h 8.892836 8.89283 l 0.98504,3.89163 c 1.33651,5.28023 3.34061,8.96161 6.9262,12.72291 13.78623,14.46183 37.49264,7.68268 42.48397,-12.14882 4.30021,-17.08551 -7.91294,-33.8873 -24.63251,-33.8873 -6.82449,0 -13.02116,2.69405 -17.85146,7.76105 -3.58559,3.76131 -5.58969,7.44269 -6.9262,12.72292 l -0.98504,3.89163 h -9.13381 -9.133811 l -0.74806,-3.025 c -1.08987,-4.40721 -3.297598,-8.32142 -6.716195,-11.90755 -9.906546,-10.39202 -25.796365,-10.39202 -35.702911,0 -5.054756,5.30247 -7.61154,11.73093 -7.61154,19.13753 0,12.17205 7.779178,22.8832 18.961805,26.10849 3.268501,0.94269 9.401637,0.96204 12.731498,0.0401 z m -11.1062,-2.84347 c -9.086779,-2.62081 -15.702303,-10.13201 -17.439824,-19.80101 -1.670955,-9.29856 3.815903,-20.23938 12.398725,-24.72311 4.793539,-2.50418 9.114723,-3.28546 13.264947,-2.39834 9.817448,2.09849 17.122515,9.84468 18.967759,20.11314 1.642737,9.14152 -3.803938,20.2121 -12.086801,24.56689 -5.599151,2.9438 -10.269199,3.63711 -15.104806,2.24243 z m 69.346024,-1.682 c -9.08677,-2.62081 -15.7023,-10.132 -17.43982,-19.80101 -1.67095,-9.29855 3.8159,-20.23937 12.39873,-24.7231 4.79353,-2.50418 9.11472,-3.28547 13.26494,-2.39835 9.81745,2.0985 17.12252,9.84468 18.96776,20.11314 1.64274,9.14153 -3.80394,20.2121 -12.0868,24.56689 -5.59915,2.94381 -10.2692,3.63711 -15.10481,2.24243 z"
         id="path848"
         inkscape:connector-curvature="0" />
      <path
         style="fill:#c5c5c5;fill-opacity:1;stroke-width:0.55113423"
         d="M 86.036993,248.60113 C 66.430557,245.44725 49.71228,230.82057 43.195588,211.11957 c -0.73444,-2.22033 -1.815786,-7.3038 -2.402991,-11.2966 -1.058531,-7.19766 -1.378726,-8.03348 -4.085843,-10.66554 -3.215441,-3.1263 -8.635939,-14.45484 -9.546907,-19.95251 -0.354684,-2.14051 -0.83905,-3.89183 -1.076369,-3.89183 -0.707615,0 -0.529487,-69.533317 0.189672,-74.039897 0.341639,-2.140868 0.783139,-3.892487 0.981111,-3.892487 0.197972,0 0.672024,-1.260129 1.053449,-2.800286 0.381425,-1.540158 1.278014,-3.691663 1.99242,-4.781122 0.714405,-1.089459 1.699007,-2.781508 2.188003,-3.760108 0.488996,-0.9786 1.223161,-2.125005 1.631479,-2.547566 0.408318,-0.422561 0.742395,-0.965729 0.742395,-1.207041 0,-0.241311 0.55782,-1.06164 1.2396,-1.822955 0.681779,-0.761314 1.734964,-2.035932 2.340411,-2.832483 1.094003,-1.439315 10.3917,-9.619036 12.42311,-10.929327 0.584377,-0.376932 1.915785,-1.120684 2.958684,-1.652782 1.042899,-0.532097 2.018078,-1.106745 2.167063,-1.276995 0.643895,-0.735794 4.453619,-2.261623 4.913102,-1.967741 0.277508,0.177492 0.504557,0.04063 0.504557,-0.30413 0,-0.344763 0.222974,-0.484231 0.495494,-0.309927 0.272519,0.174302 0.580875,0.05183 0.68523,-0.272156 0.104355,-0.323988 0.734667,-0.63155 1.400687,-0.68347 0.66602,-0.05192 1.21095,-0.335059 1.21095,-0.629197 0,-0.294138 0.144169,-0.385601 0.320368,-0.203251 0.176204,0.182351 1.456125,-0.03288 2.84427,-0.478288 1.388151,-0.44541 5.290821,-1.309453 8.672604,-1.920096 5.475991,-0.98879 8.656037,-1.110261 29.066083,-1.110261 20.41004,0 23.59009,0.121471 29.06608,1.110261 7.09993,1.282024 9.25209,1.927628 15.77863,4.733282 4.90874,2.110185 8.67677,4.117602 11.49893,6.126067 3.83912,2.732198 10.11737,8.263486 12.02334,10.592844 3.67548,4.491933 3.98893,4.944378 5.17348,7.467592 0.64254,1.368677 1.34595,2.488502 1.56314,2.488502 0.21718,0 0.91826,1.447656 1.55795,3.217013 0.63968,1.769357 1.42333,3.541547 1.74142,3.938201 0.3181,0.396654 0.42384,0.881102 0.23498,1.076552 -0.18887,0.19545 -0.12423,0.630876 0.14362,0.967614 1.39709,1.756359 1.67066,8.60457 1.67066,41.821098 0,33.21653 -0.27357,40.06474 -1.67066,41.8211 -0.26785,0.33674 -0.36286,0.74073 -0.21114,0.89775 0.15174,0.15702 -0.0817,0.99876 -0.51874,1.87054 -0.43703,0.87177 -0.65395,1.82057 -0.48204,2.10843 0.17191,0.28786 0.0985,0.6844 -0.16317,0.88119 -0.26165,0.1968 -1.03009,1.49316 -1.70765,2.88081 -0.67755,1.38764 -1.77462,3.31254 -2.43795,4.27755 -0.66331,0.965 -1.52244,2.2265 -1.90918,2.80332 -0.67129,1.00124 -0.68466,0.99795 -0.29516,-0.0726 0.68865,-1.89269 0.88318,-63.73596 0.22252,-70.73798 -0.68297,-7.23845 -2.54966,-14.43069 -5.17882,-19.953686 -2.72875,-5.732214 -5.16102,-9.446882 -5.88392,-8.986175 -0.34214,0.21805 -2.08485,1.437784 -3.87268,2.710522 -1.78782,1.272738 -6.78561,4.151181 -11.1062,6.396538 -4.32058,2.245361 -8.09939,4.282501 -8.39737,4.526961 -0.29797,0.24447 -2.49212,1.23104 -4.87589,2.19238 -2.38377,0.96134 -4.82171,1.9856 -5.41766,2.27614 -2.05616,1.00242 -10.3086,2.74231 -15.44032,3.25532 -2.83073,0.28299 -8.10724,0.39275 -11.72558,0.24392 -5.557123,-0.22857 -6.924312,-0.11284 -8.803692,0.74527 -1.223692,0.55872 -2.224897,1.19644 -2.224897,1.41714 0,0.22071 -1.036127,1.08116 -2.302505,1.91211 -1.266378,0.83095 -3.155786,2.6655 -4.198685,4.07679 -6.450622,8.72916 -11.499084,11.78335 -18.409426,11.13722 -1.942653,-0.18164 -4.70664,-0.49842 -6.1422,-0.70395 -1.623726,-0.23248 -3.398974,-0.10427 -4.697576,0.33926 -2.14879,0.7339 -5.957517,4.36612 -5.97597,5.69901 -0.0057,0.4129 -0.859002,1.75717 -1.896182,2.98726 -1.037184,1.2301 -1.885788,2.44056 -1.885788,2.68993 0,0.39249 -1.228726,1.66215 -3.634053,3.75514 -0.359888,0.31315 -0.908426,0.56937 -1.218974,0.56937 -0.756314,0 -0.759157,35.10637 -0.0034,41.50389 1.985341,16.80515 10.43761,31.0087 24.083289,40.47056 l 4.870106,3.37692 4.06903,-0.39564 c 2.237964,-0.2176 6.385079,-0.61638 9.215806,-0.88617 7.015401,-0.66862 34.058107,-0.6477 41.715977,0.0323 3.42666,0.30427 8.81482,0.95714 11.97367,1.45082 5.7064,0.89183 5.7587,0.88956 8.12648,-0.35158 4.53058,-2.37485 10.21126,-6.83401 14.17307,-11.12544 4.64324,-5.02956 6.70758,-8.00916 9.67091,-13.95864 l 2.15714,-4.33087 -0.35736,3.08365 c -0.19654,1.69601 -0.96472,5.10205 -1.70706,7.56897 -6.13249,20.37942 -23.1104,35.48854 -43.49509,38.70752 -6.59992,1.0422 -36.086239,1.04753 -42.550508,0.008 z m -19.210801,-53.2549 c -4.271157,-1.23189 -8.271886,-3.72719 -11.637661,-7.25853 -5.447489,-5.71548 -7.865909,-11.85577 -7.865909,-19.97129 0,-8.11552 2.41842,-14.2558 7.865909,-19.97128 5.234065,-5.49155 11.168991,-8.04864 18.680617,-8.04864 7.500153,0 13.417168,2.54528 18.710648,8.04864 3.493853,3.63237 6.533702,9.10783 7.103406,12.79484 l 0.329198,2.13046 h 8.28971 8.28972 l 0.61515,-3.06654 c 1.92863,-9.61425 9.90578,-18.25629 19.23612,-20.83944 3.47386,-0.96176 10.0703,-0.96176 13.54415,0 4.48382,1.24137 8.45508,3.67533 11.90854,7.29869 5.44749,5.71547 7.86591,11.85576 7.86591,19.97128 0,8.11552 -2.41842,14.2558 -7.86591,19.97128 -5.23406,5.49155 -11.16899,8.04864 -18.68061,8.04864 -7.50016,0 -13.41717,-2.54528 -18.71065,-8.04864 -3.66487,-3.81016 -6.3421,-8.77783 -7.29755,-13.54075 l -0.61515,-3.06654 h -7.97803 -7.97804 l -0.61696,3.7274 c -1.688945,10.20395 -9.629244,19.1617 -19.377578,21.86057 -3.339342,0.92452 -10.542948,0.90358 -13.81503,-0.0401 z m 13.273264,-1.08118 c 9.677373,-2.67923 17.015164,-10.9969 18.868317,-21.38796 l 0.699041,-3.91968 h 8.892836 8.89283 l 0.98504,3.89163 c 1.33651,5.28023 3.34061,8.96161 6.9262,12.72291 13.78623,14.46183 37.49264,7.68268 42.48397,-12.14882 4.30021,-17.08551 -7.91294,-33.8873 -24.63251,-33.8873 -6.82449,0 -13.02116,2.69405 -17.85146,7.76105 -3.58559,3.76131 -5.58969,7.44269 -6.9262,12.72292 l -0.98504,3.89163 h -9.13381 -9.133811 l -0.74806,-3.025 c -1.08987,-4.40721 -3.297598,-8.32142 -6.716195,-11.90755 -9.906546,-10.39202 -25.796365,-10.39202 -35.702911,0 -5.054756,5.30247 -7.61154,11.73093 -7.61154,19.13753 0,12.17205 7.779178,22.8832 18.961805,26.10849 3.268501,0.94269 9.401637,0.96204 12.731498,0.0401 z m -11.1062,-2.84347 c -9.086779,-2.62081 -15.702303,-10.13201 -17.439824,-19.80101 -1.670955,-9.29856 3.815903,-20.23938 12.398725,-24.72311 4.793539,-2.50418 9.114723,-3.28546 13.264947,-2.39834 9.817448,2.09849 17.122515,9.84468 18.967759,20.11314 1.642737,9.14152 -3.803938,20.2121 -12.086801,24.56689 -5.599151,2.9438 -10.269199,3.63711 -15.104806,2.24243 z m 8.939136,-1.08118 c 6.854574,-1.89773 11.925513,-6.06427 14.816451,-12.17393 3.46099,-7.31442 3.46099,-12.78569 0,-20.10012 -3.008101,-6.35727 -8.587687,-10.74541 -15.764541,-12.39821 -3.806322,-0.87659 -7.696726,-0.14138 -12.505153,2.36321 -5.944266,3.09622 -10.39011,9.44239 -11.81224,16.86124 -1.604156,8.36843 3.717608,19.05986 11.538491,23.18083 5.525042,2.91124 9.204857,3.51896 13.726992,2.26698 z m 60.406888,-0.60082 c -9.08677,-2.62081 -15.7023,-10.132 -17.43982,-19.80101 -1.67095,-9.29855 3.8159,-20.23937 12.39873,-24.7231 4.79353,-2.50418 9.11472,-3.28547 13.26494,-2.39835 9.81745,2.0985 17.12252,9.84468 18.96776,20.11314 1.64274,9.14153 -3.80394,20.2121 -12.0868,24.56689 -5.59915,2.94381 -10.2692,3.63711 -15.10481,2.24243 z m 8.93914,-1.08117 c 6.85457,-1.89773 11.92551,-6.06427 14.81645,-12.17393 2.37371,-5.01658 3.10463,-9.19396 2.32255,-13.27388 -1.42213,-7.41885 -5.86798,-13.76502 -11.81224,-16.86125 -4.80843,-2.50459 -8.69883,-3.23979 -12.50516,-2.36321 -7.17685,1.6528 -12.75644,6.04094 -15.76454,12.39822 -3.46099,7.31442 -3.46099,12.78569 0,20.10012 2.83876,5.99939 7.89199,10.21475 14.54557,12.13377 3.23433,0.93284 5.14007,0.94196 8.39737,0.0402 z"
         id="path846"
         inkscape:connector-curvature="0" />
      <path
         style="fill:#b5b5b5;fill-opacity:1;stroke-width:0.55113423"
         d="m 86.036993,248.60113 c -20.04071,-3.22374 -37.096161,-18.50528 -43.209358,-38.7152 -1.411423,-4.6661 -2.618107,-12.91407 -1.394434,-9.5313 4.498075,12.43467 11.526993,22.40417 20.108033,28.52032 l 2.905333,2.07078 3.577248,-0.85856 c 9.03323,-2.16803 17.450538,-2.77799 38.622165,-2.79876 20.99058,-0.0206 30.26077,0.62833 38.88449,2.72198 3.12326,0.75826 3.13138,0.75685 5.41766,-0.94357 7.96517,-5.92407 17.87034,-18.13002 21.83939,-26.91226 l 1.32024,-2.92126 -0.33773,3.08365 c -0.18576,1.69601 -0.9451,5.10205 -1.68744,7.56898 -6.1325,20.37942 -23.1104,35.48853 -43.49509,38.70751 -6.59992,1.0422 -36.086238,1.04753 -42.550507,0.008 z m -19.210801,-53.2549 c -4.271157,-1.23189 -8.271886,-3.72719 -11.637661,-7.25853 -5.447489,-5.71548 -7.865909,-11.85577 -7.865909,-19.97129 0,-8.11552 2.41842,-14.2558 7.865909,-19.97128 5.234065,-5.49155 11.168991,-8.04864 18.680617,-8.04864 7.500153,0 13.417168,2.54528 18.710648,8.04864 3.493853,3.63237 6.533702,9.10783 7.103406,12.79484 l 0.329198,2.13046 h 8.28971 8.28972 l 0.61515,-3.06654 c 1.92863,-9.61425 9.90578,-18.25629 19.23612,-20.83944 3.47386,-0.96176 10.0703,-0.96176 13.54415,0 4.48382,1.24137 8.45508,3.67533 11.90854,7.29869 5.44749,5.71547 7.86591,11.85576 7.86591,19.97128 0,8.11552 -2.41842,14.2558 -7.86591,19.97128 -5.23406,5.49155 -11.16899,8.04864 -18.68061,8.04864 -7.50016,0 -13.41717,-2.54528 -18.71065,-8.04864 -3.66487,-3.81016 -6.3421,-8.77783 -7.29755,-13.54075 l -0.61515,-3.06654 h -7.97803 -7.97804 l -0.61696,3.7274 c -1.688945,10.20395 -9.629244,19.1617 -19.377578,21.86057 -3.339342,0.92452 -10.542948,0.90358 -13.81503,-0.0401 z m 13.273264,-1.08118 c 9.677373,-2.67923 17.015164,-10.9969 18.868317,-21.38796 l 0.699041,-3.91968 h 8.892836 8.89283 l 0.98504,3.89163 c 1.33651,5.28023 3.34061,8.96161 6.9262,12.72291 13.78623,14.46183 37.49264,7.68268 42.48397,-12.14882 4.30021,-17.08551 -7.91294,-33.8873 -24.63251,-33.8873 -6.82449,0 -13.02116,2.69405 -17.85146,7.76105 -3.58559,3.76131 -5.58969,7.44269 -6.9262,12.72292 l -0.98504,3.89163 h -9.13381 -9.133811 l -0.74806,-3.025 c -1.08987,-4.40721 -3.297598,-8.32142 -6.716195,-11.90755 -9.906546,-10.39202 -25.796365,-10.39202 -35.702911,0 -5.054756,5.30247 -7.61154,11.73093 -7.61154,19.13753 0,12.17205 7.779178,22.8832 18.961805,26.10849 3.268501,0.94269 9.401637,0.96204 12.731498,0.0401 z m -11.1062,-2.84347 c -9.086779,-2.62081 -15.702303,-10.13201 -17.439824,-19.80101 -1.670955,-9.29856 3.815903,-20.23938 12.398725,-24.72311 4.793539,-2.50418 9.114723,-3.28546 13.264947,-2.39834 9.817448,2.09849 17.122515,9.84468 18.967759,20.11314 1.642737,9.14152 -3.803938,20.2121 -12.086801,24.56689 -5.599151,2.9438 -10.269199,3.63711 -15.104806,2.24243 z m 8.939136,-1.08118 c 6.854574,-1.89773 11.925513,-6.06427 14.816451,-12.17393 3.46099,-7.31442 3.46099,-12.78569 0,-20.10012 -3.008101,-6.35727 -8.587687,-10.74541 -15.764541,-12.39821 -3.806322,-0.87659 -7.696726,-0.14138 -12.505153,2.36321 -5.944266,3.09622 -10.39011,9.44239 -11.81224,16.86124 -1.604156,8.36843 3.717608,19.05986 11.538491,23.18083 5.525042,2.91124 9.204857,3.51896 13.726992,2.26698 z m 60.406888,-0.60082 c -9.08677,-2.62081 -15.7023,-10.132 -17.43982,-19.80101 -1.67095,-9.29855 3.8159,-20.23937 12.39873,-24.7231 4.79353,-2.50418 9.11472,-3.28547 13.26494,-2.39835 9.81745,2.0985 17.12252,9.84468 18.96776,20.11314 1.64274,9.14153 -3.80394,20.2121 -12.0868,24.56689 -5.59915,2.94381 -10.2692,3.63711 -15.10481,2.24243 z m 8.93914,-1.08117 c 6.85457,-1.89773 11.92551,-6.06427 14.81645,-12.17393 2.37371,-5.01658 3.10463,-9.19396 2.32255,-13.27388 -1.42213,-7.41885 -5.86798,-13.76502 -11.81224,-16.86125 -4.80843,-2.50459 -8.69883,-3.23979 -12.50516,-2.36321 -7.17685,1.6528 -12.75644,6.04094 -15.76454,12.39822 -3.46099,7.31442 -3.46099,12.78569 0,20.10012 2.83876,5.99939 7.89199,10.21475 14.54557,12.13377 3.23433,0.93284 5.14007,0.94196 8.39737,0.0402 z m -109.482589,1.75098 c -2.503629,-2.87804 -4.559121,-5.95426 -4.559121,-6.82313 0,-0.43952 -0.210012,-0.88322 -0.466693,-0.98601 -1.559,-0.6243 -6.034498,-12.46864 -6.034498,-15.9702 0,-0.68793 -0.243794,-1.40671 -0.541765,-1.59729 -0.800844,-0.51222 -0.727442,-68.703555 0.0794,-73.759567 0.341639,-2.140868 0.783139,-3.892487 0.981111,-3.892487 0.197972,0 0.672024,-1.260129 1.053449,-2.800286 0.381425,-1.540158 1.278014,-3.691663 1.99242,-4.781122 0.714405,-1.089459 1.699007,-2.781508 2.188003,-3.760108 0.488996,-0.9786 1.223161,-2.125005 1.631479,-2.547566 0.408318,-0.422561 0.742395,-0.965729 0.742395,-1.207041 0,-0.241311 0.55782,-1.06164 1.2396,-1.822955 0.681779,-0.761314 1.734964,-2.035932 2.340411,-2.832483 1.094003,-1.439315 10.3917,-9.619036 12.42311,-10.929327 0.584377,-0.376932 1.915785,-1.120684 2.958684,-1.652782 1.042899,-0.532097 2.018078,-1.106745 2.167063,-1.276995 0.643895,-0.735794 4.453619,-2.261623 4.913102,-1.967741 0.277508,0.177492 0.504557,0.04063 0.504557,-0.30413 0,-0.344763 0.222974,-0.484231 0.495494,-0.309927 0.272519,0.174302 0.580875,0.05183 0.68523,-0.272156 0.104355,-0.323988 0.734667,-0.63155 1.400687,-0.68347 0.66602,-0.05192 1.21095,-0.335059 1.21095,-0.629197 0,-0.294138 0.144169,-0.385601 0.320368,-0.203251 0.176204,0.182351 1.456125,-0.03288 2.84427,-0.478288 1.388151,-0.44541 5.290821,-1.309453 8.672604,-1.920096 5.475991,-0.98879 8.656037,-1.110261 29.066079,-1.110261 20.41004,0 23.59009,0.121471 29.06608,1.110261 10.10704,1.825013 18.14186,4.981233 26.56503,10.435218 2.69805,1.746984 10.70597,8.445998 11.6329,9.73149 0.34475,0.478106 1.38088,1.734697 2.30251,2.792424 0.92162,1.057727 1.67569,2.111977 1.67569,2.342777 0,0.2308 0.33408,0.765369 0.74239,1.18793 0.40832,0.422561 1.1691,1.639003 1.69063,2.703204 0.52153,1.064202 1.26592,2.31336 1.6542,2.775909 0.38828,0.462548 1.22951,2.354791 1.8694,4.204984 0.63988,1.850194 1.37537,3.868586 1.63441,4.485317 1.414,3.366477 1.61899,8.645443 1.61899,41.694142 0,32.92767 -0.2764,40.09896 -1.6128,41.84489 -0.51302,0.67023 -1.35742,4.2729 -1.17064,4.9946 0.0725,0.28011 -0.0639,0.65856 -0.30312,0.841 -0.23921,0.18244 -0.98928,1.46705 -1.66684,2.8547 -0.67755,1.38764 -1.77462,3.31254 -2.43795,4.27755 -0.66331,0.965 -1.46586,2.20921 -1.78342,2.76491 -0.41509,0.72633 -0.44418,-0.39735 -0.10349,-3.99722 0.26066,-2.75416 0.37079,-19.64091 0.24474,-37.52612 -0.2501,-35.48769 -0.20065,-34.87755 -3.61849,-44.65268 -2.01825,-5.772297 -6.81896,-14.15105 -7.76319,-13.54922 -0.35354,0.225337 -2.10556,1.451033 -3.89339,2.723771 -1.78782,1.272738 -6.78561,4.151181 -11.1062,6.396538 -4.32058,2.245361 -8.09939,4.282501 -8.39737,4.526961 -0.29797,0.24447 -2.49212,1.23104 -4.87589,2.19238 -2.38377,0.96134 -4.82171,1.9856 -5.41766,2.27614 -2.05616,1.00242 -10.3086,2.74231 -15.44032,3.25532 -2.83073,0.28299 -8.10724,0.39275 -11.72558,0.24392 -5.557119,-0.22857 -6.924308,-0.11284 -8.803688,0.74527 -1.223692,0.55872 -2.224897,1.19644 -2.224897,1.41714 0,0.22071 -1.036127,1.08116 -2.302505,1.91211 -1.266378,0.83095 -3.155786,2.6655 -4.198685,4.07679 -6.450622,8.72916 -11.499084,11.78335 -18.409426,11.13722 -1.942653,-0.18164 -4.70664,-0.49842 -6.1422,-0.70395 -1.623726,-0.23248 -3.398974,-0.10427 -4.697576,0.33926 -2.14879,0.7339 -5.957517,4.36612 -5.97597,5.69901 -0.0057,0.4129 -0.859002,1.75717 -1.896182,2.98726 -1.037184,1.2301 -1.885788,2.44056 -1.885788,2.68993 0,0.39931 -1.957305,2.39936 -3.537721,3.61497 -1.59534,1.22709 -4.07647,2.39153 -5.09575,2.39153 H 39.162 l 0.15251,23.54816 c 0.08388,12.95148 0.131861,23.54804 0.106622,23.54791 -0.02524,-1.3e-4 -0.756622,-0.81726 -1.625297,-1.81584 z"
         id="path844"
         inkscape:connector-curvature="0" />
      <path
         style="fill:#a5a5a5;fill-opacity:1;stroke-width:0.55113423"
         d="m 89.038592,249.07373 c -9.583307,-1.66054 -13.084934,-2.76734 -19.508408,-6.16624 -14.100762,-7.46126 -24.581261,-21.71046 -27.923101,-37.96404 -0.941439,-4.57884 -1.017636,-7.2122 -0.132776,-4.58882 3.931579,11.65611 11.502015,22.41566 20.066927,28.52032 l 2.905333,2.07078 3.492315,-0.82984 c 8.916436,-2.1187 18.675774,-2.82636 38.977988,-2.82636 19.99478,0 28.67561,0.61247 38.36532,2.70686 l 3.42142,0.73953 2.26712,-1.68603 c 7.98062,-5.9351 18.01722,-18.32914 21.77962,-26.89533 1.49276,-3.39869 1.66037,-2.56373 0.55983,2.78889 -4.41949,21.49489 -20.09797,37.81341 -41.47209,43.1651 -2.78195,0.69656 -7.50353,0.91513 -22.48328,1.04079 -10.428991,0.0875 -19.57129,0.0535 -20.316218,-0.0756 z m -22.2124,-53.7275 c -4.271157,-1.23189 -8.271886,-3.72719 -11.637661,-7.25853 -5.447489,-5.71548 -7.865909,-11.85577 -7.865909,-19.97129 0,-8.11552 2.41842,-14.2558 7.865909,-19.97128 5.234065,-5.49155 11.168991,-8.04864 18.680617,-8.04864 7.500153,0 13.417168,2.54528 18.710648,8.04864 3.493853,3.63237 6.533702,9.10783 7.103406,12.79484 l 0.329198,2.13046 h 8.28971 8.28972 l 0.61515,-3.06654 c 1.92863,-9.61425 9.90578,-18.25629 19.23612,-20.83944 3.47386,-0.96176 10.0703,-0.96176 13.54415,0 4.48382,1.24137 8.45508,3.67533 11.90854,7.29869 5.44749,5.71547 7.86591,11.85576 7.86591,19.97128 0,8.11552 -2.41842,14.2558 -7.86591,19.97128 -5.23406,5.49155 -11.16899,8.04864 -18.68061,8.04864 -7.50016,0 -13.41717,-2.54528 -18.71065,-8.04864 -3.66487,-3.81016 -6.3421,-8.77783 -7.29755,-13.54075 l -0.61515,-3.06654 h -7.97803 -7.97804 l -0.61696,3.7274 c -1.688945,10.20395 -9.629244,19.1617 -19.377578,21.86057 -3.339342,0.92452 -10.542948,0.90358 -13.81503,-0.0401 z m 13.273264,-1.08118 c 9.677373,-2.67923 17.015164,-10.9969 18.868317,-21.38796 l 0.699041,-3.91968 h 8.892836 8.89283 l 0.98504,3.89163 c 1.33651,5.28023 3.34061,8.96161 6.9262,12.72291 13.78623,14.46183 37.49264,7.68268 42.48397,-12.14882 4.30021,-17.08551 -7.91294,-33.8873 -24.63251,-33.8873 -6.82449,0 -13.02116,2.69405 -17.85146,7.76105 -3.58559,3.76131 -5.58969,7.44269 -6.9262,12.72292 l -0.98504,3.89163 h -9.13381 -9.133811 l -0.74806,-3.025 c -1.08987,-4.40721 -3.297598,-8.32142 -6.716195,-11.90755 -9.906546,-10.39202 -25.796365,-10.39202 -35.702911,0 -5.054756,5.30247 -7.61154,11.73093 -7.61154,19.13753 0,12.17205 7.779178,22.8832 18.961805,26.10849 3.268501,0.94269 9.401637,0.96204 12.731498,0.0401 z m -11.1062,-2.84347 c -9.086779,-2.62081 -15.702303,-10.13201 -17.439824,-19.80101 -1.670955,-9.29856 3.815903,-20.23938 12.398725,-24.72311 4.793539,-2.50418 9.114723,-3.28546 13.264947,-2.39834 9.817448,2.09849 17.122515,9.84468 18.967759,20.11314 1.642737,9.14152 -3.803938,20.2121 -12.086801,24.56689 -5.599151,2.9438 -10.269199,3.63711 -15.104806,2.24243 z m 8.939136,-1.08118 c 6.854574,-1.89773 11.925513,-6.06427 14.816451,-12.17393 3.46099,-7.31442 3.46099,-12.78569 0,-20.10012 -3.008101,-6.35727 -8.587687,-10.74541 -15.764541,-12.39821 -3.806322,-0.87659 -7.696726,-0.14138 -12.505153,2.36321 -5.944266,3.09622 -10.39011,9.44239 -11.81224,16.86124 -1.604156,8.36843 3.717608,19.05986 11.538491,23.18083 5.525042,2.91124 9.204857,3.51896 13.726992,2.26698 z m 60.406888,-0.60082 c -9.08677,-2.62081 -15.7023,-10.132 -17.43982,-19.80101 -1.67095,-9.29855 3.8159,-20.23937 12.39873,-24.7231 4.79353,-2.50418 9.11472,-3.28547 13.26494,-2.39835 9.81745,2.0985 17.12252,9.84468 18.96776,20.11314 1.64274,9.14153 -3.80394,20.2121 -12.0868,24.56689 -5.59915,2.94381 -10.2692,3.63711 -15.10481,2.24243 z m 8.93914,-1.08117 c 6.85457,-1.89773 11.92551,-6.06427 14.81645,-12.17393 2.37371,-5.01658 3.10463,-9.19396 2.32255,-13.27388 -1.42213,-7.41885 -5.86798,-13.76502 -11.81224,-16.86125 -4.80843,-2.50459 -8.69883,-3.23979 -12.50516,-2.36321 -7.17685,1.6528 -12.75644,6.04094 -15.76454,12.39822 -3.46099,7.31442 -3.46099,12.78569 0,20.10012 2.83876,5.99939 7.89199,10.21475 14.54557,12.13377 3.23433,0.93284 5.14007,0.94196 8.39737,0.0402 z m -109.482589,1.75098 c -2.547447,-2.92841 -4.559121,-5.95967 -4.559121,-6.86985 0,-0.46521 -0.204144,-0.84585 -0.453653,-0.84585 -0.967118,0 -5.043179,-10.20625 -5.766645,-14.43938 -0.551673,-3.22794 -0.81349,-13.24079 -1.019819,-39.00171 -0.263072,-32.845406 -0.02046,-40.904916 1.260448,-41.871894 0.204238,-0.154183 0.695759,-1.501071 1.092268,-2.993084 0.396509,-1.492013 1.289909,-3.580443 1.985333,-4.640955 0.695424,-1.060512 1.664495,-2.728877 2.153491,-3.707477 0.488996,-0.9786 1.223161,-2.125005 1.631479,-2.547566 0.408318,-0.422561 0.742395,-0.965729 0.742395,-1.207041 0,-0.241311 0.55782,-1.06164 1.2396,-1.822955 0.681779,-0.761314 1.734964,-2.035932 2.340411,-2.832483 1.094003,-1.439315 10.3917,-9.619036 12.42311,-10.929327 0.584377,-0.376932 1.915785,-1.120684 2.958684,-1.652782 1.042899,-0.532097 2.018078,-1.106745 2.167063,-1.276995 0.643895,-0.735794 4.453619,-2.261623 4.913102,-1.967741 0.277508,0.177492 0.504557,0.04063 0.504557,-0.30413 0,-0.344763 0.222974,-0.484231 0.495494,-0.309927 0.272519,0.174302 0.580875,0.05183 0.68523,-0.272156 0.104355,-0.323988 0.734667,-0.63155 1.400687,-0.68347 0.66602,-0.05192 1.21095,-0.335059 1.21095,-0.629197 0,-0.294138 0.144169,-0.385601 0.320368,-0.203251 0.176204,0.182351 1.456125,-0.03288 2.84427,-0.478288 1.388151,-0.44541 5.290821,-1.309453 8.672604,-1.920096 5.475346,-0.988674 8.649503,-1.110014 28.984473,-1.108007 30.09385,0.003 34.41053,0.708172 49.97411,8.164085 4.34393,2.08101 15.57321,10.614783 17.45322,13.263699 0.38968,0.549065 1.42706,1.812448 2.30528,2.807516 0.87822,0.995068 1.73384,2.256169 1.90138,2.802446 0.16753,0.546277 0.4903,0.993231 0.71726,0.993231 0.22695,0 0.98358,1.261496 1.6814,2.803323 0.69781,1.541828 1.45127,2.803323 1.67436,2.803323 0.22309,0 0.82011,1.324571 1.32672,2.94349 0.50661,1.618919 1.23911,3.700386 1.62778,4.625483 1.69958,4.045242 1.87233,7.946102 1.87233,42.281246 0,32.62698 -0.22545,38.68681 -1.5558,41.81845 -1.35463,3.18877 -1.67696,4.34192 -1.36139,4.87035 0.19094,0.31973 0.13309,0.74235 -0.12856,0.93914 -0.26165,0.1968 -1.03009,1.49316 -1.70765,2.88081 -0.67755,1.38764 -1.77462,3.31254 -2.43795,4.27755 -0.66331,0.965 -1.47342,2.22162 -1.80023,2.79248 -0.43924,0.76724 -0.46682,-0.0559 -0.10576,-3.15622 0.26865,-2.30678 0.39372,-19.20594 0.27793,-37.55369 -0.1851,-29.33067 -0.32535,-33.86738 -1.16133,-37.56453 -1.69066,-7.47699 -4.7901,-14.619753 -8.98107,-20.69714 -0.80655,-1.169594 -0.8415,-1.158023 -4.65817,1.542209 -2.11503,1.496353 -7.35662,4.549823 -11.64796,6.785488 -4.29135,2.235662 -8.04624,4.271393 -8.34422,4.523843 -0.29797,0.25244 -2.49212,1.24554 -4.87589,2.20688 -2.38377,0.96134 -4.82171,1.9856 -5.41766,2.27614 -2.05616,1.00242 -10.3086,2.74231 -15.44032,3.25532 -2.83073,0.28299 -8.10724,0.39275 -11.72558,0.24392 -5.557123,-0.22857 -6.924312,-0.11284 -8.803692,0.74527 -1.223692,0.55872 -2.224897,1.19903 -2.224897,1.4229 0,0.22387 -0.874562,0.9664 -1.943471,1.65007 -2.039202,1.30426 -3.31532,2.56333 -5.274384,5.20392 -5.865211,7.90563 -11.010426,10.89118 -17.692761,10.26637 -1.942653,-0.18164 -4.70664,-0.49842 -6.1422,-0.70395 -1.623726,-0.23248 -3.398974,-0.10427 -4.697576,0.33926 -2.14879,0.7339 -5.957517,4.36612 -5.97597,5.69901 -0.0057,0.4129 -0.859002,1.75717 -1.896182,2.98726 -1.037184,1.2301 -1.885788,2.44056 -1.885788,2.68993 0,0.39931 -1.957305,2.39936 -3.537721,3.61497 -1.59534,1.22709 -4.07647,2.39153 -5.09575,2.39153 h -1.152452 l 0.15251,23.54816 c 0.08388,12.95148 0.131861,23.54804 0.106622,23.54791 -0.02524,-1.3e-4 -0.756622,-0.81726 -1.625297,-1.81584 z"
         id="path842"
         inkscape:connector-curvature="0" />
      <path
         style="fill:#949494;fill-opacity:1;stroke-width:0.55113423"
         d="m 89.038592,249.07373 c -9.583307,-1.66054 -13.084934,-2.76734 -19.508408,-6.16624 -14.100762,-7.46126 -24.581261,-21.71046 -27.923101,-37.96404 -0.941439,-4.57884 -1.017636,-7.2122 -0.132776,-4.58882 3.941768,11.68631 11.500623,22.41467 20.122317,28.5598 l 2.960718,2.11026 3.707813,-0.86691 c 9.168303,-2.14361 18.835552,-2.85858 38.651715,-2.85858 19.53798,0 28.48988,0.64646 37.9236,2.73865 3.39453,0.75283 3.58984,0.7351 5.41766,-0.49179 3.47687,-2.33378 7.48156,-6.19791 11.93865,-11.51963 5.2358,-6.25148 8.13045,-10.55101 10.3028,-15.30312 1.78231,-3.89889 1.96553,-3.39706 0.8106,2.22014 -4.41949,21.49489 -20.09797,37.81341 -41.47209,43.1651 -2.78195,0.69656 -7.50353,0.91513 -22.48328,1.04079 -10.428991,0.0875 -19.57129,0.0535 -20.316218,-0.0756 z m -22.2124,-53.7275 c -4.271157,-1.23189 -8.271886,-3.72719 -11.637661,-7.25853 -5.447489,-5.71548 -7.865909,-11.85577 -7.865909,-19.97129 0,-8.11552 2.41842,-14.2558 7.865909,-19.97128 5.234065,-5.49155 11.168991,-8.04864 18.680617,-8.04864 7.500153,0 13.417168,2.54528 18.710648,8.04864 3.493853,3.63237 6.533702,9.10783 7.103406,12.79484 l 0.329198,2.13046 h 8.28971 8.28972 l 0.61515,-3.06654 c 1.92863,-9.61425 9.90578,-18.25629 19.23612,-20.83944 3.47386,-0.96176 10.0703,-0.96176 13.54415,0 4.48382,1.24137 8.45508,3.67533 11.90854,7.29869 5.44749,5.71547 7.86591,11.85576 7.86591,19.97128 0,8.11552 -2.41842,14.2558 -7.86591,19.97128 -5.23406,5.49155 -11.16899,8.04864 -18.68061,8.04864 -7.50016,0 -13.41717,-2.54528 -18.71065,-8.04864 -3.66487,-3.81016 -6.3421,-8.77783 -7.29755,-13.54075 l -0.61515,-3.06654 h -7.97803 -7.97804 l -0.61696,3.7274 c -1.688945,10.20395 -9.629244,19.1617 -19.377578,21.86057 -3.339342,0.92452 -10.542948,0.90358 -13.81503,-0.0401 z m 13.273264,-1.08118 c 9.677373,-2.67923 17.015164,-10.9969 18.868317,-21.38796 l 0.699041,-3.91968 h 8.892836 8.89283 l 0.98504,3.89163 c 1.33651,5.28023 3.34061,8.96161 6.9262,12.72291 13.78623,14.46183 37.49264,7.68268 42.48397,-12.14882 4.30021,-17.08551 -7.91294,-33.8873 -24.63251,-33.8873 -6.82449,0 -13.02116,2.69405 -17.85146,7.76105 -3.58559,3.76131 -5.58969,7.44269 -6.9262,12.72292 l -0.98504,3.89163 h -9.13381 -9.133811 l -0.74806,-3.025 c -1.08987,-4.40721 -3.297598,-8.32142 -6.716195,-11.90755 -9.906546,-10.39202 -25.796365,-10.39202 -35.702911,0 -5.054756,5.30247 -7.61154,11.73093 -7.61154,19.13753 0,12.17205 7.779178,22.8832 18.961805,26.10849 3.268501,0.94269 9.401637,0.96204 12.731498,0.0401 z m -11.1062,-2.84347 c -9.086779,-2.62081 -15.702303,-10.13201 -17.439824,-19.80101 -1.670955,-9.29856 3.815903,-20.23938 12.398725,-24.72311 4.793539,-2.50418 9.114723,-3.28546 13.264947,-2.39834 9.817448,2.09849 17.122515,9.84468 18.967759,20.11314 1.642737,9.14152 -3.803938,20.2121 -12.086801,24.56689 -5.599151,2.9438 -10.269199,3.63711 -15.104806,2.24243 z m 8.939136,-1.08118 c 6.854574,-1.89773 11.925513,-6.06427 14.816451,-12.17393 3.46099,-7.31442 3.46099,-12.78569 0,-20.10012 -3.008101,-6.35727 -8.587687,-10.74541 -15.764541,-12.39821 -3.806322,-0.87659 -7.696726,-0.14138 -12.505153,2.36321 -5.944266,3.09622 -10.39011,9.44239 -11.81224,16.86124 -1.604156,8.36843 3.717608,19.05986 11.538491,23.18083 5.525042,2.91124 9.204857,3.51896 13.726992,2.26698 z m 60.406888,-0.60082 c -9.08677,-2.62081 -15.7023,-10.132 -17.43982,-19.80101 -1.67095,-9.29855 3.8159,-20.23937 12.39873,-24.7231 4.79353,-2.50418 9.11472,-3.28547 13.26494,-2.39835 9.81745,2.0985 17.12252,9.84468 18.96776,20.11314 1.64274,9.14153 -3.80394,20.2121 -12.0868,24.56689 -5.59915,2.94381 -10.2692,3.63711 -15.10481,2.24243 z m 8.93914,-1.08117 c 6.85457,-1.89773 11.92551,-6.06427 14.81645,-12.17393 2.37371,-5.01658 3.10463,-9.19396 2.32255,-13.27388 -1.42213,-7.41885 -5.86798,-13.76502 -11.81224,-16.86125 -4.80843,-2.50459 -8.69883,-3.23979 -12.50516,-2.36321 -7.17685,1.6528 -12.75644,6.04094 -15.76454,12.39822 -3.46099,7.31442 -3.46099,12.78569 0,20.10012 2.83876,5.99939 7.89199,10.21475 14.54557,12.13377 3.23433,0.93284 5.14007,0.94196 8.39737,0.0402 z m -109.482589,1.75098 c -2.510028,-2.8854 -4.559121,-5.95504 -4.559121,-6.8298 0,-0.44319 -0.355069,-1.17326 -0.789043,-1.62237 -0.433973,-0.44911 -1.635837,-2.68834 -2.670808,-4.97606 -3.339594,-7.38191 -3.486054,-9.23142 -3.781841,-47.75707 -0.251875,-32.806205 -0.0082,-40.88445 1.262023,-41.843384 0.204238,-0.154183 0.695759,-1.501071 1.092268,-2.993084 0.396509,-1.492013 1.289909,-3.580443 1.985333,-4.640955 0.695424,-1.060512 1.664495,-2.728877 2.153491,-3.707477 0.488996,-0.9786 1.223161,-2.125005 1.631479,-2.547566 0.408318,-0.422561 0.742395,-0.965729 0.742395,-1.207041 0,-0.241311 0.55782,-1.06164 1.2396,-1.822955 0.681779,-0.761314 1.734964,-2.035932 2.340411,-2.832483 1.094003,-1.439315 10.3917,-9.619036 12.42311,-10.929327 0.584377,-0.376932 1.915785,-1.120684 2.958684,-1.652782 1.042899,-0.532097 2.018078,-1.106745 2.167063,-1.276995 0.643895,-0.735794 4.453619,-2.261623 4.913102,-1.967741 0.277508,0.177492 0.504557,0.04063 0.504557,-0.30413 0,-0.344763 0.222974,-0.484231 0.495494,-0.309927 0.272519,0.174302 0.580875,0.05183 0.68523,-0.272156 0.104355,-0.323988 0.734667,-0.63155 1.400687,-0.68347 0.66602,-0.05192 1.21095,-0.335059 1.21095,-0.629197 0,-0.294138 0.144169,-0.385601 0.320368,-0.203251 0.176204,0.182351 1.456125,-0.03288 2.84427,-0.478288 1.388151,-0.44541 5.290821,-1.309453 8.672604,-1.920096 5.475346,-0.988674 8.649503,-1.110014 28.984473,-1.108007 28.4003,0.0028 32.21085,0.49635 44.50641,5.764502 4.8048,2.058667 6.87512,3.130448 10.83531,5.609303 2.37897,1.489103 11.01055,8.902512 12.89583,11.075843 2.23307,2.574269 5.34995,7.28709 6.3796,9.646148 0.37012,0.848005 0.85774,1.541827 1.08358,1.541827 0.22585,0 0.94828,1.703019 1.60539,3.784487 0.65711,2.081467 1.38932,4.004454 1.62713,4.273304 0.23781,0.26885 0.30226,0.839736 0.14322,1.268636 -0.15903,0.428899 0.0429,1.19376 0.44866,1.69969 0.99989,1.246598 1.10209,75.489632 0.10686,77.613842 -0.84533,1.80425 -1.92153,6.09107 -1.92157,7.65419 -2e-5,0.69382 -0.16907,1.2615 -0.37566,1.2615 -0.20659,0 -0.6842,0.88313 -1.06136,1.96252 -0.37715,1.07938 -1.244,2.65625 -1.92634,3.50415 -0.68233,0.8479 -1.58075,2.222 -1.99648,3.05356 -0.65376,1.30767 -0.75669,-3.53996 -0.7619,-35.88254 l -0.006,-37.39446 -1.48349,-5.60664 c -1.49858,-5.66363 -5.85091,-15.517972 -8.11203,-18.366868 l -1.22777,-1.546925 -3.84552,2.720912 c -2.11503,1.496502 -7.35662,4.550093 -11.64796,6.785758 -4.29135,2.235662 -8.04624,4.271393 -8.34422,4.523843 -0.29797,0.25244 -2.49212,1.24554 -4.87589,2.20688 -2.38377,0.96134 -4.82171,1.9856 -5.41766,2.27614 -2.05616,1.00242 -10.3086,2.74231 -15.44032,3.25532 -2.83073,0.28299 -8.10724,0.39275 -11.72558,0.24392 -5.557123,-0.22857 -6.924312,-0.11284 -8.803692,0.74527 -1.223692,0.55872 -2.224897,1.19903 -2.224897,1.4229 0,0.22387 -0.874562,0.9664 -1.943471,1.65007 -2.039202,1.30426 -3.31532,2.56333 -5.274384,5.20392 -5.865211,7.90563 -11.010426,10.89118 -17.692761,10.26637 -1.942653,-0.18164 -4.70664,-0.49842 -6.1422,-0.70395 -1.623726,-0.23248 -3.398974,-0.10427 -4.697576,0.33926 -2.14879,0.7339 -5.957517,4.36612 -5.97597,5.69901 -0.0057,0.4129 -0.859002,1.75717 -1.896182,2.98726 -1.037184,1.2301 -1.885788,2.44056 -1.885788,2.68993 0,0.39931 -1.957305,2.39936 -3.537721,3.61497 -1.59534,1.22709 -4.07647,2.39153 -5.09575,2.39153 h -1.152452 l 0.15251,23.54816 c 0.08388,12.95148 0.131861,23.54804 0.106622,23.54791 -0.02524,-1.3e-4 -0.756622,-0.81726 -1.625297,-1.81584 z"
         id="path840"
         inkscape:connector-curvature="0" />
      <path
         style="fill:#848484;fill-opacity:1;stroke-width:0.55113423"
         d="m 89.038592,249.07373 c -9.583307,-1.66054 -13.084934,-2.76734 -19.508408,-6.16624 -14.100762,-7.46126 -24.581261,-21.71046 -27.923101,-37.96404 -0.941439,-4.57884 -1.017636,-7.2122 -0.132776,-4.58882 3.948713,11.70691 11.499659,22.41398 20.160295,28.58687 l 2.998701,2.13733 4.211601,-0.90997 c 13.140997,-2.83926 35.769586,-3.90557 55.146836,-2.59864 8.80994,0.5942 18.3534,1.82245 22.12261,2.84718 1.82931,0.49734 2.33019,0.40017 4.06324,-0.78829 7.72252,-5.29577 18.20763,-17.90533 22.26007,-26.77031 1.8428,-4.03125 2.03539,-3.57112 0.87252,2.08465 -4.41949,21.49489 -20.09797,37.81341 -41.47209,43.1651 -2.78195,0.69656 -7.50353,0.91513 -22.48328,1.04079 -10.428991,0.0875 -19.57129,0.0535 -20.316218,-0.0756 z m -22.2124,-53.7275 c -4.271157,-1.23189 -8.271886,-3.72719 -11.637661,-7.25853 -5.447489,-5.71548 -7.865909,-11.85577 -7.865909,-19.97129 0,-8.11552 2.41842,-14.2558 7.865909,-19.97128 5.234065,-5.49155 11.168991,-8.04864 18.680617,-8.04864 7.500153,0 13.417168,2.54528 18.710648,8.04864 3.493853,3.63237 6.533702,9.10783 7.103406,12.79484 l 0.329198,2.13046 h 8.28971 8.28972 l 0.61515,-3.06654 c 1.92863,-9.61425 9.90578,-18.25629 19.23612,-20.83944 3.47386,-0.96176 10.0703,-0.96176 13.54415,0 4.48382,1.24137 8.45508,3.67533 11.90854,7.29869 5.44749,5.71547 7.86591,11.85576 7.86591,19.97128 0,8.11552 -2.41842,14.2558 -7.86591,19.97128 -5.23406,5.49155 -11.16899,8.04864 -18.68061,8.04864 -7.50016,0 -13.41717,-2.54528 -18.71065,-8.04864 -3.66487,-3.81016 -6.3421,-8.77783 -7.29755,-13.54075 l -0.61515,-3.06654 h -7.97803 -7.97804 l -0.61696,3.7274 c -1.688945,10.20395 -9.629244,19.1617 -19.377578,21.86057 -3.339342,0.92452 -10.542948,0.90358 -13.81503,-0.0401 z m 13.273264,-1.08118 c 9.677373,-2.67923 17.015164,-10.9969 18.868317,-21.38796 l 0.699041,-3.91968 h 8.892836 8.89283 l 0.98504,3.89163 c 1.33651,5.28023 3.34061,8.96161 6.9262,12.72291 13.78623,14.46183 37.49264,7.68268 42.48397,-12.14882 4.30021,-17.08551 -7.91294,-33.8873 -24.63251,-33.8873 -6.82449,0 -13.02116,2.69405 -17.85146,7.76105 -3.58559,3.76131 -5.58969,7.44269 -6.9262,12.72292 l -0.98504,3.89163 h -9.13381 -9.133811 l -0.74806,-3.025 c -1.08987,-4.40721 -3.297598,-8.32142 -6.716195,-11.90755 -9.906546,-10.39202 -25.796365,-10.39202 -35.702911,0 -5.054756,5.30247 -7.61154,11.73093 -7.61154,19.13753 0,12.17205 7.779178,22.8832 18.961805,26.10849 3.268501,0.94269 9.401637,0.96204 12.731498,0.0401 z m -11.1062,-2.84347 c -9.086779,-2.62081 -15.702303,-10.13201 -17.439824,-19.80101 -1.670955,-9.29856 3.815903,-20.23938 12.398725,-24.72311 4.793539,-2.50418 9.114723,-3.28546 13.264947,-2.39834 9.817448,2.09849 17.122515,9.84468 18.967759,20.11314 1.642737,9.14152 -3.803938,20.2121 -12.086801,24.56689 -5.599151,2.9438 -10.269199,3.63711 -15.104806,2.24243 z m 8.939136,-1.08118 c 6.854574,-1.89773 11.925513,-6.06427 14.816451,-12.17393 3.46099,-7.31442 3.46099,-12.78569 0,-20.10012 -3.008101,-6.35727 -8.587687,-10.74541 -15.764541,-12.39821 -3.806322,-0.87659 -7.696726,-0.14138 -12.505153,2.36321 -5.944266,3.09622 -10.39011,9.44239 -11.81224,16.86124 -1.604156,8.36843 3.717608,19.05986 11.538491,23.18083 5.525042,2.91124 9.204857,3.51896 13.726992,2.26698 z m 60.406888,-0.60082 c -9.08677,-2.62081 -15.7023,-10.132 -17.43982,-19.80101 -1.67095,-9.29855 3.8159,-20.23937 12.39873,-24.7231 4.79353,-2.50418 9.11472,-3.28547 13.26494,-2.39835 9.81745,2.0985 17.12252,9.84468 18.96776,20.11314 1.64274,9.14153 -3.80394,20.2121 -12.0868,24.56689 -5.59915,2.94381 -10.2692,3.63711 -15.10481,2.24243 z m 8.93914,-1.08117 c 6.85457,-1.89773 11.92551,-6.06427 14.81645,-12.17393 2.37371,-5.01658 3.10463,-9.19396 2.32255,-13.27388 -1.42213,-7.41885 -5.86798,-13.76502 -11.81224,-16.86125 -4.80843,-2.50459 -8.69883,-3.23979 -12.50516,-2.36321 -7.17685,1.6528 -12.75644,6.04094 -15.76454,12.39822 -3.46099,7.31442 -3.46099,12.78569 0,20.10012 2.83876,5.99939 7.89199,10.21475 14.54557,12.13377 3.23433,0.93284 5.14007,0.94196 8.39737,0.0402 z m -109.482589,1.75098 c -2.510028,-2.8854 -4.559121,-5.95504 -4.559121,-6.8298 0,-0.44319 -0.375938,-1.19485 -0.835417,-1.67036 -0.682173,-0.70597 -3.572541,-6.59857 -3.740371,-7.62551 -0.0252,-0.15418 -0.206868,-0.54137 -0.403713,-0.86043 -0.196844,-0.31905 -0.726443,-2.58974 -1.176886,-5.04598 -0.654287,-3.56778 -0.872545,-11.44162 -1.085305,-39.15322 -0.251875,-32.806205 -0.0082,-40.88445 1.262023,-41.843384 0.204238,-0.154183 0.695759,-1.501071 1.092268,-2.993084 0.396509,-1.492013 1.289909,-3.580443 1.985333,-4.640955 0.695424,-1.060512 1.664495,-2.728877 2.153491,-3.707477 0.488996,-0.9786 1.223161,-2.125005 1.631479,-2.547566 0.408318,-0.422561 0.742395,-0.965729 0.742395,-1.207041 0,-0.241311 0.55782,-1.06164 1.2396,-1.822955 0.681779,-0.761314 1.734964,-2.035932 2.340411,-2.832483 1.094003,-1.439315 10.3917,-9.619036 12.42311,-10.929327 0.584377,-0.376932 1.915785,-1.120684 2.958684,-1.652782 1.042899,-0.532097 2.018078,-1.106745 2.167063,-1.276995 0.643895,-0.735794 4.453619,-2.261623 4.913102,-1.967741 0.277508,0.177492 0.504557,0.04063 0.504557,-0.30413 0,-0.344763 0.222974,-0.484231 0.495494,-0.309927 0.272519,0.174302 0.580875,0.05183 0.68523,-0.272156 0.104355,-0.323988 0.734667,-0.63155 1.400687,-0.68347 0.66602,-0.05192 1.21095,-0.335059 1.21095,-0.629197 0,-0.294138 0.144169,-0.385601 0.320368,-0.203251 0.176204,0.182351 1.456125,-0.03288 2.84427,-0.478288 1.388151,-0.44541 5.290821,-1.309453 8.672604,-1.920096 5.475346,-0.988674 8.649503,-1.110014 28.984473,-1.108007 24.07232,0.0024 28.67984,0.356174 36.69232,2.817488 5.64927,1.735371 14.04403,5.579921 18.6466,8.539588 5.3677,3.451679 15.35386,13.244411 16.57445,16.253403 0.34398,0.848005 0.79797,1.541827 1.00886,1.541827 0.21089,0 0.95437,1.261496 1.65218,2.803323 0.69781,1.541828 1.43536,2.803324 1.63898,2.803324 0.20364,0 0.90989,1.955318 1.56947,4.34515 0.65957,2.389833 1.48742,4.95095 1.83965,5.69137 0.88827,1.867152 0.92006,75.515439 0.0334,77.482279 -1.10388,2.44887 -2.30785,7.31677 -2.00898,8.12278 0.16167,0.436 0.073,0.79274 -0.19694,0.79274 -0.27,0 -0.79948,0.88313 -1.17664,1.96252 -0.37715,1.07938 -1.244,2.65625 -1.92634,3.50415 -0.68234,0.8479 -1.58076,2.22243 -1.99649,3.05451 -0.65267,1.30631 -0.73328,-3.21009 -0.59039,-33.07921 0.17692,-36.98324 -10e-4,-40.55985 -2.41715,-48.53274 -1.4769,-4.874001 -5.34544,-13.095227 -7.35924,-15.639508 l -1.22439,-1.546925 -3.84552,2.720912 c -2.11503,1.496502 -7.35662,4.550093 -11.64796,6.785758 -4.29135,2.235662 -8.04624,4.271393 -8.34422,4.523843 -0.29797,0.25244 -2.49212,1.24554 -4.87589,2.20688 -2.38377,0.96134 -4.82171,1.9856 -5.41766,2.27614 -2.05616,1.00242 -10.3086,2.74231 -15.44032,3.25532 -2.83073,0.28299 -8.10724,0.39275 -11.72558,0.24392 -5.557123,-0.22857 -6.924312,-0.11284 -8.803692,0.74527 -1.223692,0.55872 -2.224897,1.19903 -2.224897,1.4229 0,0.22387 -0.874562,0.9664 -1.943471,1.65007 -2.039202,1.30426 -3.31532,2.56333 -5.274384,5.20392 -5.865211,7.90563 -11.010426,10.89118 -17.692761,10.26637 -1.942653,-0.18164 -4.70664,-0.49842 -6.1422,-0.70395 -1.623726,-0.23248 -3.398974,-0.10427 -4.697576,0.33926 -2.14879,0.7339 -5.957517,4.36612 -5.97597,5.69901 -0.0057,0.4129 -0.859002,1.75717 -1.896182,2.98726 -1.037184,1.2301 -1.885788,2.44056 -1.885788,2.68993 0,0.39931 -1.957305,2.39936 -3.537721,3.61497 -1.59534,1.22709 -4.07647,2.39153 -5.09575,2.39153 h -1.152452 l 0.15251,23.54816 c 0.08388,12.95148 0.131861,23.54804 0.106622,23.54791 -0.02524,-1.3e-4 -0.756622,-0.81726 -1.625297,-1.81584 z"
         id="path838"
         inkscape:connector-curvature="0" />
      <path
         style="fill:#747474;fill-opacity:1;stroke-width:0.55113423"
         d="m 89.038592,249.07373 c -9.583307,-1.66054 -13.084934,-2.76734 -19.508408,-6.16624 -14.100762,-7.46126 -24.581261,-21.71046 -27.923101,-37.96404 -0.941439,-4.57884 -1.017636,-7.2122 -0.132776,-4.58882 3.9503,11.71161 11.499436,22.41383 20.169001,28.59308 2.993121,2.13335 3.020935,2.14043 5.855882,1.4913 11.694926,-2.67781 33.9439,-3.96036 52.01373,-2.99834 12.04387,0.6412 20.33104,1.56224 26.10483,2.90131 2.60758,0.60476 2.72958,0.57261 5.60527,-1.47705 6.73931,-4.80345 16.46178,-16.43851 20.40088,-24.41411 2.67347,-5.41304 2.88766,-5.35046 1.68628,0.49263 -4.41949,21.49489 -20.09797,37.81341 -41.47209,43.1651 -2.78195,0.69656 -7.50353,0.91513 -22.48328,1.04079 -10.428991,0.0875 -19.57129,0.0535 -20.316218,-0.0756 z m -22.2124,-53.7275 c -4.271157,-1.23189 -8.271886,-3.72719 -11.637661,-7.25853 -5.447489,-5.71548 -7.865909,-11.85577 -7.865909,-19.97129 0,-8.11552 2.41842,-14.2558 7.865909,-19.97128 5.234065,-5.49155 11.168991,-8.04864 18.680617,-8.04864 7.500153,0 13.417168,2.54528 18.710648,8.04864 3.493853,3.63237 6.533702,9.10783 7.103406,12.79484 l 0.329198,2.13046 h 8.28971 8.28972 l 0.61515,-3.06654 c 1.92863,-9.61425 9.90578,-18.25629 19.23612,-20.83944 3.47386,-0.96176 10.0703,-0.96176 13.54415,0 4.48382,1.24137 8.45508,3.67533 11.90854,7.29869 5.44749,5.71547 7.86591,11.85576 7.86591,19.97128 0,8.11552 -2.41842,14.2558 -7.86591,19.97128 -5.23406,5.49155 -11.16899,8.04864 -18.68061,8.04864 -7.50016,0 -13.41717,-2.54528 -18.71065,-8.04864 -3.66487,-3.81016 -6.3421,-8.77783 -7.29755,-13.54075 l -0.61515,-3.06654 h -7.97803 -7.97804 l -0.61696,3.7274 c -1.688945,10.20395 -9.629244,19.1617 -19.377578,21.86057 -3.339342,0.92452 -10.542948,0.90358 -13.81503,-0.0401 z m 13.273264,-1.08118 c 9.677373,-2.67923 17.015164,-10.9969 18.868317,-21.38796 l 0.699041,-3.91968 h 8.892836 8.89283 l 0.98504,3.89163 c 1.33651,5.28023 3.34061,8.96161 6.9262,12.72291 13.78623,14.46183 37.49264,7.68268 42.48397,-12.14882 4.30021,-17.08551 -7.91294,-33.8873 -24.63251,-33.8873 -6.82449,0 -13.02116,2.69405 -17.85146,7.76105 -3.58559,3.76131 -5.58969,7.44269 -6.9262,12.72292 l -0.98504,3.89163 h -9.13381 -9.133811 l -0.74806,-3.025 c -1.08987,-4.40721 -3.297598,-8.32142 -6.716195,-11.90755 -9.906546,-10.39202 -25.796365,-10.39202 -35.702911,0 -5.054756,5.30247 -7.61154,11.73093 -7.61154,19.13753 0,12.17205 7.779178,22.8832 18.961805,26.10849 3.268501,0.94269 9.401637,0.96204 12.731498,0.0401 z m -11.1062,-2.84347 c -9.086779,-2.62081 -15.702303,-10.13201 -17.439824,-19.80101 -1.670955,-9.29856 3.815903,-20.23938 12.398725,-24.72311 4.793539,-2.50418 9.114723,-3.28546 13.264947,-2.39834 9.817448,2.09849 17.122515,9.84468 18.967759,20.11314 1.642737,9.14152 -3.803938,20.2121 -12.086801,24.56689 -5.599151,2.9438 -10.269199,3.63711 -15.104806,2.24243 z m 8.939136,-1.08118 c 6.854574,-1.89773 11.925513,-6.06427 14.816451,-12.17393 3.46099,-7.31442 3.46099,-12.78569 0,-20.10012 -3.008101,-6.35727 -8.587687,-10.74541 -15.764541,-12.39821 -3.806322,-0.87659 -7.696726,-0.14138 -12.505153,2.36321 -5.944266,3.09622 -10.39011,9.44239 -11.81224,16.86124 -1.604156,8.36843 3.717608,19.05986 11.538491,23.18083 5.525042,2.91124 9.204857,3.51896 13.726992,2.26698 z m 60.406888,-0.60082 c -9.08677,-2.62081 -15.7023,-10.132 -17.43982,-19.80101 -1.67095,-9.29855 3.8159,-20.23937 12.39873,-24.7231 4.79353,-2.50418 9.11472,-3.28547 13.26494,-2.39835 9.81745,2.0985 17.12252,9.84468 18.96776,20.11314 1.64274,9.14153 -3.80394,20.2121 -12.0868,24.56689 -5.59915,2.94381 -10.2692,3.63711 -15.10481,2.24243 z m 8.93914,-1.08117 c 6.85457,-1.89773 11.92551,-6.06427 14.81645,-12.17393 2.37371,-5.01658 3.10463,-9.19396 2.32255,-13.27388 -1.42213,-7.41885 -5.86798,-13.76502 -11.81224,-16.86125 -4.80843,-2.50459 -8.69883,-3.23979 -12.50516,-2.36321 -7.17685,1.6528 -12.75644,6.04094 -15.76454,12.39822 -3.46099,7.31442 -3.46099,12.78569 0,20.10012 2.83876,5.99939 7.89199,10.21475 14.54557,12.13377 3.23433,0.93284 5.14007,0.94196 8.39737,0.0402 z m -109.482589,1.75098 c -2.577309,-2.96274 -4.352915,-5.66779 -4.723581,-7.19616 -0.19129,-0.78875 -0.831381,-2.01111 -1.422424,-2.71636 -0.591043,-0.70525 -1.356237,-2.20249 -1.700431,-3.32721 -0.344193,-1.12472 -0.938478,-2.56291 -1.320634,-3.19598 -2.002224,-3.31687 -2.347268,-9.19433 -2.62708,-44.74959 -0.258255,-32.81614 -0.01622,-40.883445 1.25536,-41.843384 0.204238,-0.154183 0.695759,-1.501071 1.092268,-2.993084 0.396509,-1.492013 1.289909,-3.580443 1.985333,-4.640955 0.695424,-1.060512 1.664495,-2.728877 2.153491,-3.707477 0.488996,-0.9786 1.223161,-2.125005 1.631479,-2.547566 0.408318,-0.422561 0.742395,-0.965729 0.742395,-1.207041 0,-0.241311 0.55782,-1.06164 1.2396,-1.822955 0.681779,-0.761314 1.734964,-2.035932 2.340411,-2.832483 1.094003,-1.439315 10.3917,-9.619036 12.42311,-10.929327 0.584377,-0.376932 1.915785,-1.120684 2.958684,-1.652782 1.042899,-0.532097 2.018078,-1.106745 2.167063,-1.276995 0.643895,-0.735794 4.453619,-2.261623 4.913102,-1.967741 0.277508,0.177492 0.504557,0.04063 0.504557,-0.30413 0,-0.344763 0.222974,-0.484231 0.495494,-0.309927 0.272519,0.174302 0.580875,0.05183 0.68523,-0.272156 0.104355,-0.323988 0.734667,-0.63155 1.400687,-0.68347 0.66602,-0.05192 1.21095,-0.335059 1.21095,-0.629197 0,-0.294138 0.144169,-0.385601 0.320368,-0.203251 0.176204,0.182351 1.456125,-0.03288 2.84427,-0.478288 1.388151,-0.44541 5.290821,-1.309453 8.672604,-1.920096 5.475346,-0.988674 8.649503,-1.110014 28.984473,-1.108007 27.93441,0.0027 32.855,0.63067 44.24318,5.645822 2.10033,0.924949 4.35965,1.9204 5.02072,2.212113 0.66106,0.291714 2.17711,1.163785 3.36899,1.937937 1.19189,0.774151 2.53276,1.586504 2.97972,1.805228 0.44695,0.218724 2.8849,2.134307 5.41765,4.256852 5.24616,4.396471 9.95918,9.486939 10.88112,11.752527 0.34509,0.848005 0.79996,1.541827 1.01085,1.541827 0.21089,0 0.95437,1.261496 1.65218,2.803323 0.69781,1.541828 1.43536,2.803324 1.63898,2.803324 0.20364,0 0.91143,1.955318 1.57289,4.34515 0.66146,2.389833 1.34271,4.7236 1.51389,5.186148 0.17118,0.462549 0.26059,1.384573 0.1987,2.048943 -0.0619,0.66437 0.14564,1.373082 0.46121,1.574916 0.80402,0.514248 0.80402,70.731082 0,71.245332 -0.31557,0.20183 -0.52311,0.91054 -0.46121,1.57491 0.0619,0.66437 -0.0133,1.5864 -0.167,2.04895 -1.17454,3.53356 -1.93101,6.95348 -1.68489,7.61723 0.16168,0.436 0.073,0.79274 -0.19694,0.79274 -0.27,0 -0.79948,0.88313 -1.17664,1.96252 -0.37715,1.07938 -1.244,2.65625 -1.92634,3.50415 -0.68233,0.8479 -1.58075,2.22193 -1.99648,3.05339 -0.65366,1.30732 -0.75588,-3.58334 -0.75588,-36.16287 0,-37.49128 -0.006,-37.69741 -1.23696,-42.35705 -0.68032,-2.57533 -1.84364,-6.22756 -2.58513,-8.116055 -1.41013,-3.591392 -5.28165,-10.568525 -6.39489,-11.524664 -0.62486,-0.536674 -3.1193,0.821662 -6.84865,3.729388 -0.74492,0.580812 -4.88943,2.889655 -9.21002,5.130763 -4.32058,2.241105 -8.09939,4.281288 -8.39737,4.533738 -0.29797,0.25244 -2.49212,1.24554 -4.87589,2.20688 -2.38377,0.96134 -4.82171,1.9856 -5.41766,2.27614 -2.05616,1.00242 -10.3086,2.74231 -15.44032,3.25532 -2.83073,0.28299 -8.10724,0.39275 -11.72558,0.24392 -5.557123,-0.22857 -6.924312,-0.11284 -8.803692,0.74527 -1.223692,0.55872 -2.224897,1.19903 -2.224897,1.4229 0,0.22387 -0.874562,0.9664 -1.943471,1.65007 -2.039202,1.30426 -3.31532,2.56333 -5.274384,5.20392 -5.865211,7.90563 -11.010426,10.89118 -17.692761,10.26637 -1.942653,-0.18164 -4.70664,-0.49842 -6.1422,-0.70395 -1.623726,-0.23248 -3.398974,-0.10427 -4.697576,0.33926 -2.14879,0.7339 -5.957517,4.36612 -5.97597,5.69901 -0.0057,0.4129 -0.859002,1.75717 -1.896182,2.98726 -1.037184,1.2301 -1.885788,2.44056 -1.885788,2.68993 0,0.39931 -1.957305,2.39936 -3.537721,3.61497 -1.59534,1.22709 -4.07647,2.39153 -5.09575,2.39153 h -1.152452 l 0.15251,23.54816 c 0.08388,12.95148 0.131861,23.54804 0.106622,23.54791 -0.02524,-1.3e-4 -0.756622,-0.81726 -1.625297,-1.81584 z"
         id="path836"
         inkscape:connector-curvature="0" />
      <path
         style="fill:#646464;fill-opacity:1;stroke-width:0.55113423"
         d="M 87.188326,248.81649 C 69.248232,245.97345 54.076952,234.67121 46.219753,218.2959 c -2.609302,-5.4381 -5.445771,-15.05267 -5.355551,-18.15333 0.04265,-1.4656 0.04445,-1.46497 0.610105,0.21206 3.944828,11.69538 10.734653,21.40691 19.763955,28.26847 3.240952,2.46287 3.742324,2.67251 5.262302,2.2003 3.997078,-1.24178 16.645734,-2.74786 28.074231,-3.3428 17.663655,-0.91952 40.538735,0.39227 50.962805,2.92251 2.39695,0.58181 2.74813,0.52344 4.6382,-0.77098 3.36844,-2.3069 7.15016,-5.87547 11.64472,-10.98845 5.10292,-5.80502 6.93828,-8.45339 9.95475,-14.3644 1.25891,-2.46692 2.29605,-4.07614 2.30474,-3.57604 0.0464,2.66707 -3.00257,12.6326 -5.3825,17.59266 -6.91628,14.41432 -19.55714,24.99043 -34.96324,29.25233 -5.32338,1.47265 -5.74763,1.50115 -24.37946,1.63743 -10.428991,0.0763 -20.403908,-0.0899 -22.166484,-0.36917 z M 66.826192,195.34623 c -4.271157,-1.23189 -8.271886,-3.72719 -11.637661,-7.25853 -5.447489,-5.71548 -7.865909,-11.85577 -7.865909,-19.97129 0,-8.11552 2.41842,-14.2558 7.865909,-19.97128 5.234065,-5.49155 11.168991,-8.04864 18.680617,-8.04864 7.500153,0 13.417168,2.54528 18.710648,8.04864 3.493853,3.63237 6.533702,9.10783 7.103406,12.79484 l 0.329198,2.13046 h 8.28971 8.28972 l 0.61515,-3.06654 c 1.92863,-9.61425 9.90578,-18.25629 19.23612,-20.83944 3.47386,-0.96176 10.0703,-0.96176 13.54415,0 4.48382,1.24137 8.45508,3.67533 11.90854,7.29869 5.44749,5.71547 7.86591,11.85576 7.86591,19.97128 0,8.11552 -2.41842,14.2558 -7.86591,19.97128 -5.23406,5.49155 -11.16899,8.04864 -18.68061,8.04864 -7.50016,0 -13.41717,-2.54528 -18.71065,-8.04864 -3.66487,-3.81016 -6.3421,-8.77783 -7.29755,-13.54075 l -0.61515,-3.06654 h -7.97803 -7.97804 l -0.61696,3.7274 c -1.688945,10.20395 -9.629244,19.1617 -19.377578,21.86057 -3.339342,0.92452 -10.542948,0.90358 -13.81503,-0.0401 z m 13.273264,-1.08118 c 9.677373,-2.67923 17.015164,-10.9969 18.868317,-21.38796 l 0.699041,-3.91968 h 8.892836 8.89283 l 0.98504,3.89163 c 1.33651,5.28023 3.34061,8.96161 6.9262,12.72291 13.78623,14.46183 37.49264,7.68268 42.48397,-12.14882 4.30021,-17.08551 -7.91294,-33.8873 -24.63251,-33.8873 -6.82449,0 -13.02116,2.69405 -17.85146,7.76105 -3.58559,3.76131 -5.58969,7.44269 -6.9262,12.72292 l -0.98504,3.89163 h -9.13381 -9.133811 l -0.74806,-3.025 c -1.08987,-4.40721 -3.297598,-8.32142 -6.716195,-11.90755 -9.906546,-10.39202 -25.796365,-10.39202 -35.702911,0 -5.054756,5.30247 -7.61154,11.73093 -7.61154,19.13753 0,12.17205 7.779178,22.8832 18.961805,26.10849 3.268501,0.94269 9.401637,0.96204 12.731498,0.0401 z m -11.1062,-2.84347 c -9.086779,-2.62081 -15.702303,-10.13201 -17.439824,-19.80101 -1.670955,-9.29856 3.815903,-20.23938 12.398725,-24.72311 4.793539,-2.50418 9.114723,-3.28546 13.264947,-2.39834 9.817448,2.09849 17.122515,9.84468 18.967759,20.11314 1.642737,9.14152 -3.803938,20.2121 -12.086801,24.56689 -5.599151,2.9438 -10.269199,3.63711 -15.104806,2.24243 z m 8.939136,-1.08118 c 6.854574,-1.89773 11.925513,-6.06427 14.816451,-12.17393 3.46099,-7.31442 3.46099,-12.78569 0,-20.10012 -3.008101,-6.35727 -8.587687,-10.74541 -15.764541,-12.39821 -3.806322,-0.87659 -7.696726,-0.14138 -12.505153,2.36321 -5.944266,3.09622 -10.39011,9.44239 -11.81224,16.86124 -1.604156,8.36843 3.717608,19.05986 11.538491,23.18083 5.525042,2.91124 9.204857,3.51896 13.726992,2.26698 z m 60.406888,-0.60082 c -9.08677,-2.62081 -15.7023,-10.132 -17.43982,-19.80101 -1.67095,-9.29855 3.8159,-20.23937 12.39873,-24.7231 4.79353,-2.50418 9.11472,-3.28547 13.26494,-2.39835 9.81745,2.0985 17.12252,9.84468 18.96776,20.11314 1.64274,9.14153 -3.80394,20.2121 -12.0868,24.56689 -5.59915,2.94381 -10.2692,3.63711 -15.10481,2.24243 z m 8.93914,-1.08117 c 6.85457,-1.89773 11.92551,-6.06427 14.81645,-12.17393 2.37371,-5.01658 3.10463,-9.19396 2.32255,-13.27388 -1.42213,-7.41885 -5.86798,-13.76502 -11.81224,-16.86125 -4.80843,-2.50459 -8.69883,-3.23979 -12.50516,-2.36321 -7.17685,1.6528 -12.75644,6.04094 -15.76454,12.39822 -3.46099,7.31442 -3.46099,12.78569 0,20.10012 2.83876,5.99939 7.89199,10.21475 14.54557,12.13377 3.23433,0.93284 5.14007,0.94196 8.39737,0.0402 z m -114.583476,-6.4065 c 0,-0.27939 -0.486491,-1.08847 -1.081091,-1.79797 -0.5946,-0.70949 -1.492403,-2.64033 -1.995119,-4.29076 -0.502715,-1.65044 -1.127688,-3.00079 -1.388829,-3.00079 -0.26114,0 -0.317527,-0.26335 -0.125304,-0.58522 0.192224,-0.32188 0.121018,-0.88955 -0.158234,-1.26149 -1.426837,-1.90048 -1.752613,-8.18612 -1.752613,-33.81558 v -26.50465 l 1.38493,-4.09823 c 0.761712,-2.25403 1.606156,-4.60283 1.876542,-5.21957 0.427071,-0.97411 1.04112,-3.383702 3.214742,-12.61495 0.441531,-1.875161 1.149631,-3.865285 3.769679,-10.594738 2.35905,-6.059095 7.32452,-12.138852 11.657145,-14.273095 5.886099,-2.89948 13.036048,-4.918701 18.715201,-5.28537 3.847615,-0.248418 5.031412,-0.56802 7.186215,-1.940133 1.418874,-0.903498 2.57977,-1.842772 2.57977,-2.087277 0,-0.244504 0.792332,-0.778352 1.760739,-1.186327 1.930209,-0.813168 6.1494,-5.09422 6.659353,-6.756988 0.306553,-0.999556 1.307855,-1.047248 21.98697,-1.047248 22.05428,0 25.77257,0.255242 33.71291,2.314228 6.0093,1.558254 15.15816,5.578444 20.63728,9.068431 2.20445,1.404147 10.93464,9.032935 12.48972,10.914006 0.89391,1.081308 2.14702,2.568986 2.78467,3.30595 0.63766,0.736964 1.45958,2.089936 1.82647,3.006605 0.3669,0.916668 0.83963,1.66667 1.05052,1.66667 0.21088,0 0.97108,1.32457 1.68932,2.943489 0.71824,1.618919 1.49619,3.087657 1.72878,3.263864 0.23259,0.176205 0.92768,2.573047 1.54465,5.326314 0.61697,2.753266 1.34347,5.444039 1.61443,5.979494 0.64517,1.274946 0.65057,70.210755 0.006,71.499955 -0.26788,0.53546 -0.89816,2.92887 -1.40062,5.31871 -0.50246,2.38983 -1.15005,4.34515 -1.43909,4.34515 -0.28905,0 -1.17542,-1.45072 -1.96972,-3.22382 l -1.44418,-3.22383 -0.0157,-31.59077 c -0.009,-17.37492 0.16715,-31.70779 0.39062,-31.85081 0.22348,-0.14302 0.40633,-0.98715 0.40633,-1.87584 0,-0.8887 0.24379,-1.77175 0.54177,-1.96233 0.29797,-0.19058 0.54176,-1.302963 0.54176,-2.47196 2e-5,-2.597845 -2.68207,-6.779007 -4.34852,-6.779007 h -1.09114 l 1.09455,-2.220323 c 1.2401,-2.5156 1.51401,-8.334601 0.44442,-9.441501 -0.35757,-0.370039 -1.65061,-0.672798 -2.87344,-0.672798 -1.8037,0 -2.55013,0.348945 -3.95489,1.848852 -0.95236,1.016868 -1.73157,2.121322 -1.73157,2.454341 0,0.333018 -0.36569,0.919573 -0.81265,1.303454 -0.70393,0.604586 -0.81265,0.322915 -0.81265,-2.105358 0,-3.766129 -0.72198,-4.320939 -5.02434,-3.860996 -2.86596,0.306384 -5.62255,1.102096 -9.60334,2.772078 -0.80634,0.338268 -5.43316,1.66187 -9.3576,2.676944 -2.86847,0.741939 -10.14597,5.044233 -10.14597,5.998062 0,0.231375 -0.53215,0.669733 -1.18255,0.97413 -0.73332,0.3432 -1.51156,1.583421 -2.04863,3.264724 -1.06302,3.327777 -2.77522,5.238728 -5.95958,6.651308 -3.12218,1.38501 -12.27644,2.96613 -22.12297,3.82107 -12.797656,1.11117 -17.091031,3.33885 -20.72946,10.75578 -1.164532,2.3739 -2.859186,5.19058 -3.765902,6.25929 l -1.648566,1.94311 -8.318191,-0.31419 c -7.83835,-0.29606 -8.462486,-0.2419 -10.819574,0.93895 -2.867225,1.43642 -11.151492,9.53945 -12.442676,12.17047 -0.47664,0.97124 -1.892071,2.67426 -3.145404,3.78448 -2.195198,1.94456 -2.434193,2.0186 -6.515397,2.0186 -3.359471,0 -4.23661,0.17004 -4.23661,0.82128 0,1.22191 1.777835,1.98205 4.63573,1.98205 2.300478,0 2.46981,0.0873 1.796356,0.92627 -0.580158,0.72274 -0.7835,4.32215 -0.925375,16.38028 -0.170255,14.47016 -0.247858,15.50186 -1.218973,16.20579 -0.570429,0.41348 -1.037142,1.22718 -1.037142,1.80823 0,0.58105 -0.243795,1.21238 -0.541766,1.40296 -0.297972,0.19058 -0.541766,0.11792 -0.541766,-0.16145 z M 160.94898,90.114457 c 0.3675,-0.383168 0.80465,-0.555434 0.97145,-0.382812 0.16681,0.172621 -0.13387,0.486123 -0.66817,0.69667 -0.77213,0.304264 -0.83435,0.239864 -0.30328,-0.313858 z m 8.71114,0.247239 c 0.39109,-0.16196 0.85837,-0.142041 1.03839,0.04426 0.18002,0.186305 -0.13996,0.318817 -0.71107,0.294473 -0.63113,-0.0269 -0.7595,-0.159757 -0.32732,-0.338735 z"
         id="path834"
         inkscape:connector-curvature="0" />
      <path
         style="fill:#535353;fill-opacity:1;stroke-width:0.55113423"
         d="M 87.188326,248.81649 C 69.248232,245.97345 54.076952,234.67121 46.219753,218.2959 c -2.609302,-5.4381 -5.445771,-15.05267 -5.355551,-18.15333 0.04265,-1.4656 0.04445,-1.46497 0.610105,0.21206 3.939575,11.67981 10.735899,21.40785 19.732663,28.2447 l 3.550961,2.69845 3.065755,-0.73033 c 17.440917,-4.15478 55.115534,-4.37798 75.880664,-0.44956 l 4.55241,0.86125 2.98752,-2.12937 c 3.70218,-2.63872 11.63877,-10.90019 15.61371,-16.2528 1.64066,-2.20931 3.94036,-5.98904 5.11043,-8.39938 2.48388,-5.11677 2.61963,-4.59833 0.77334,2.95329 -4.79666,19.61911 -19.70356,35.05716 -39.00749,40.39735 -5.32338,1.47265 -5.74763,1.50115 -24.37946,1.63743 -10.428991,0.0763 -20.403908,-0.0899 -22.166484,-0.36917 z M 66.826192,195.34623 c -4.271157,-1.23189 -8.271886,-3.72719 -11.637661,-7.25853 -5.447489,-5.71548 -7.865909,-11.85577 -7.865909,-19.97129 0,-8.11552 2.41842,-14.2558 7.865909,-19.97128 5.234065,-5.49155 11.168991,-8.04864 18.680617,-8.04864 7.500153,0 13.417168,2.54528 18.710648,8.04864 3.493853,3.63237 6.533702,9.10783 7.103406,12.79484 l 0.329198,2.13046 h 8.28971 8.28972 l 0.61515,-3.06654 c 1.92863,-9.61425 9.90578,-18.25629 19.23612,-20.83944 3.47386,-0.96176 10.0703,-0.96176 13.54415,0 4.48382,1.24137 8.45508,3.67533 11.90854,7.29869 5.44749,5.71547 7.86591,11.85576 7.86591,19.97128 0,8.11552 -2.41842,14.2558 -7.86591,19.97128 -5.23406,5.49155 -11.16899,8.04864 -18.68061,8.04864 -7.50016,0 -13.41717,-2.54528 -18.71065,-8.04864 -3.66487,-3.81016 -6.3421,-8.77783 -7.29755,-13.54075 l -0.61515,-3.06654 h -7.97803 -7.97804 l -0.61696,3.7274 c -1.688945,10.20395 -9.629244,19.1617 -19.377578,21.86057 -3.339342,0.92452 -10.542948,0.90358 -13.81503,-0.0401 z m 13.273264,-1.08118 c 9.677373,-2.67923 17.015164,-10.9969 18.868317,-21.38796 l 0.699041,-3.91968 h 8.892836 8.89283 l 0.98504,3.89163 c 1.33651,5.28023 3.34061,8.96161 6.9262,12.72291 13.78623,14.46183 37.49264,7.68268 42.48397,-12.14882 4.30021,-17.08551 -7.91294,-33.8873 -24.63251,-33.8873 -6.82449,0 -13.02116,2.69405 -17.85146,7.76105 -3.58559,3.76131 -5.58969,7.44269 -6.9262,12.72292 l -0.98504,3.89163 h -9.13381 -9.133811 l -0.74806,-3.025 c -1.08987,-4.40721 -3.297598,-8.32142 -6.716195,-11.90755 -9.906546,-10.39202 -25.796365,-10.39202 -35.702911,0 -5.054756,5.30247 -7.61154,11.73093 -7.61154,19.13753 0,12.17205 7.779178,22.8832 18.961805,26.10849 3.268501,0.94269 9.401637,0.96204 12.731498,0.0401 z m -11.1062,-2.84347 c -9.086779,-2.62081 -15.702303,-10.13201 -17.439824,-19.80101 -1.670955,-9.29856 3.815903,-20.23938 12.398725,-24.72311 4.793539,-2.50418 9.114723,-3.28546 13.264947,-2.39834 9.817448,2.09849 17.122515,9.84468 18.967759,20.11314 1.642737,9.14152 -3.803938,20.2121 -12.086801,24.56689 -5.599151,2.9438 -10.269199,3.63711 -15.104806,2.24243 z m 8.939136,-1.08118 c 6.854574,-1.89773 11.925513,-6.06427 14.816451,-12.17393 3.46099,-7.31442 3.46099,-12.78569 0,-20.10012 -3.008101,-6.35727 -8.587687,-10.74541 -15.764541,-12.39821 -3.806322,-0.87659 -7.696726,-0.14138 -12.505153,2.36321 -5.944266,3.09622 -10.39011,9.44239 -11.81224,16.86124 -1.604156,8.36843 3.717608,19.05986 11.538491,23.18083 5.525042,2.91124 9.204857,3.51896 13.726992,2.26698 z m 60.406888,-0.60082 c -9.08677,-2.62081 -15.7023,-10.132 -17.43982,-19.80101 -1.67095,-9.29855 3.8159,-20.23937 12.39873,-24.7231 4.79353,-2.50418 9.11472,-3.28547 13.26494,-2.39835 9.81745,2.0985 17.12252,9.84468 18.96776,20.11314 1.64274,9.14153 -3.80394,20.2121 -12.0868,24.56689 -5.59915,2.94381 -10.2692,3.63711 -15.10481,2.24243 z m 8.93914,-1.08117 c 6.85457,-1.89773 11.92551,-6.06427 14.81645,-12.17393 2.37371,-5.01658 3.10463,-9.19396 2.32255,-13.27388 -1.42213,-7.41885 -5.86798,-13.76502 -11.81224,-16.86125 -4.80843,-2.50459 -8.69883,-3.23979 -12.50516,-2.36321 -7.17685,1.6528 -12.75644,6.04094 -15.76454,12.39822 -3.46099,7.31442 -3.46099,12.78569 0,20.10012 2.83876,5.99939 7.89199,10.21475 14.54557,12.13377 3.23433,0.93284 5.14007,0.94196 8.39737,0.0402 z M 32.150326,181.00457 c -0.368702,-0.92118 -0.870527,-1.67487 -1.115165,-1.67487 -0.244637,0 -1.003697,-1.82916 -1.686799,-4.06481 -0.683101,-2.23565 -1.395643,-4.19097 -1.583427,-4.34515 -1.168911,-0.95976 -1.570754,-9.53551 -1.565317,-33.40547 0.006,-26.13483 0.121086,-27.91024 2.105814,-32.47263 1.284445,-2.95262 1.935933,-5.248436 4.375263,-15.418275 1.057874,-4.410394 5.419369,-15.078054 6.834975,-16.717479 0.569183,-0.659175 2.010057,-2.435543 3.201942,-3.947485 2.298631,-2.915882 6.535768,-5.537137 11.377083,-7.038297 7.349173,-2.278781 8.98458,-2.648616 13.00238,-2.940396 3.827982,-0.277995 4.676631,-0.553168 7.266998,-2.356317 1.613076,-1.122861 3.807227,-2.577019 4.875893,-3.231462 1.06866,-0.654444 2.9182,-2.462856 4.110085,-4.018695 l 2.167063,-2.828797 21.941516,-0.18629 c 12.06784,-0.10246 23.52618,0.01788 25.463,0.267434 7.30808,0.941611 17.31433,4.350956 24.40292,8.314603 7.82347,4.374561 18.48561,14.376305 21.3082,19.988408 0.55849,1.110435 1.33596,2.350685 1.72773,2.756111 0.39175,0.405426 1.01991,1.617537 1.3959,2.69358 0.37598,1.076043 0.89281,1.956441 1.14851,1.956441 0.2557,0 0.29739,0.280508 0.0926,0.623349 -0.20474,0.342842 -0.0877,0.805378 0.26018,1.027857 0.34785,0.22248 1.04952,2.528038 1.55927,5.123464 0.50975,2.595425 1.04871,4.781912 1.1977,4.858859 0.14899,0.07695 0.13503,16.602537 -0.031,36.723527 -0.26896,32.59452 -0.4067,36.9963 -1.2632,40.36812 -0.52872,2.08147 -1.19869,3.78449 -1.48882,3.78449 -0.29014,0 -1.1774,-1.45072 -1.9717,-3.22382 l -1.44418,-3.22383 -0.0157,-31.59077 c -0.009,-17.37492 0.16714,-31.70779 0.39062,-31.85081 0.22348,-0.14302 0.40633,-0.98715 0.40633,-1.87584 0,-0.8887 0.24379,-1.77175 0.54176,-1.96233 0.29797,-0.19058 0.54177,-1.302963 0.54177,-2.47196 -1e-5,-2.597845 -2.6821,-6.779007 -4.34855,-6.779007 h -1.09114 l 1.09455,-2.220323 c 1.2401,-2.5156 1.51401,-8.334601 0.44442,-9.441501 -0.35757,-0.370039 -1.65061,-0.672798 -2.87344,-0.672798 -1.8037,0 -2.55013,0.348945 -3.95489,1.848852 -0.95236,1.016868 -1.73157,2.125221 -1.73157,2.463006 0,0.337785 -0.36569,0.759379 -0.81265,0.936875 -0.64554,0.256357 -0.81265,-0.178373 -0.81265,-2.114023 0,-3.363045 -0.83312,-3.942478 -5.02434,-3.494417 -2.86596,0.306384 -5.62255,1.102096 -9.60334,2.772078 -0.80634,0.338268 -5.43316,1.66187 -9.3576,2.676944 -2.86847,0.741939 -10.14597,5.044233 -10.14597,5.998062 0,0.231375 -0.53215,0.669733 -1.18255,0.97413 -0.73332,0.3432 -1.51156,1.583421 -2.04863,3.264724 -1.06302,3.327777 -2.77522,5.238728 -5.95958,6.651308 -3.12218,1.38501 -12.27644,2.96613 -22.12297,3.82107 -12.797656,1.11117 -17.091031,3.33885 -20.72946,10.75578 -1.164532,2.3739 -2.859186,5.19058 -3.765902,6.25929 l -1.648566,1.94311 -8.318191,-0.31419 c -7.83835,-0.29606 -8.462486,-0.2419 -10.819574,0.93895 -2.867225,1.43642 -11.151492,9.53945 -12.442676,12.17047 -0.47664,0.97124 -1.892071,2.67426 -3.145404,3.78448 -2.195198,1.94456 -2.434193,2.0186 -6.515397,2.0186 -3.359471,0 -4.23661,0.17004 -4.23661,0.82128 0,1.22191 1.777835,1.98205 4.63573,1.98205 2.300478,0 2.46981,0.0873 1.796356,0.92627 -0.580158,0.72274 -0.7835,4.32215 -0.925375,16.38028 -0.170255,14.47016 -0.247858,15.50186 -1.218973,16.20579 -0.570429,0.41348 -1.037142,1.22718 -1.037142,1.80823 0,1.77101 -0.918284,1.76772 -1.62815,-0.006 z M 160.94898,90.114457 c 0.3675,-0.383168 0.80465,-0.555434 0.97145,-0.382812 0.16681,0.172621 -0.13387,0.486123 -0.66817,0.69667 -0.77213,0.304264 -0.83435,0.239864 -0.30328,-0.313858 z"
         id="path832"
         inkscape:connector-curvature="0" />
      <path
         style="fill:#434343;fill-opacity:1;stroke-width:0.55113423"
         d="m 66.826192,195.34623 c -4.271157,-1.23189 -8.271886,-3.72719 -11.637661,-7.25853 -5.447489,-5.71548 -7.865909,-11.85577 -7.865909,-19.97129 0,-8.11552 2.41842,-14.2558 7.865909,-19.97128 5.234065,-5.49155 11.168991,-8.04864 18.680617,-8.04864 7.500153,0 13.417168,2.54528 18.710648,8.04864 3.493853,3.63237 6.533702,9.10783 7.103406,12.79484 l 0.329198,2.13046 h 8.28971 8.28972 l 0.61515,-3.06654 c 1.92863,-9.61425 9.90578,-18.25629 19.23612,-20.83944 3.47386,-0.96176 10.0703,-0.96176 13.54415,0 4.48382,1.24137 8.45508,3.67533 11.90854,7.29869 5.44749,5.71547 7.86591,11.85576 7.86591,19.97128 0,8.11552 -2.41842,14.2558 -7.86591,19.97128 -5.23406,5.49155 -11.16899,8.04864 -18.68061,8.04864 -7.50016,0 -13.41717,-2.54528 -18.71065,-8.04864 -3.66487,-3.81016 -6.3421,-8.77783 -7.29755,-13.54075 l -0.61515,-3.06654 h -7.97803 -7.97804 l -0.61696,3.7274 c -1.688945,10.20395 -9.629244,19.1617 -19.377578,21.86057 -3.339342,0.92452 -10.542948,0.90358 -13.81503,-0.0401 z m 13.273264,-1.08118 c 9.677373,-2.67923 17.015164,-10.9969 18.868317,-21.38796 l 0.699041,-3.91968 h 8.892836 8.89283 l 0.98504,3.89163 c 1.33651,5.28023 3.34061,8.96161 6.9262,12.72291 13.78623,14.46183 37.49264,7.68268 42.48397,-12.14882 4.30021,-17.08551 -7.91294,-33.8873 -24.63251,-33.8873 -6.82449,0 -13.02116,2.69405 -17.85146,7.76105 -3.58559,3.76131 -5.58969,7.44269 -6.9262,12.72292 l -0.98504,3.89163 h -9.13381 -9.133811 l -0.74806,-3.025 c -1.08987,-4.40721 -3.297598,-8.32142 -6.716195,-11.90755 -9.906546,-10.39202 -25.796365,-10.39202 -35.702911,0 -5.054756,5.30247 -7.61154,11.73093 -7.61154,19.13753 0,12.17205 7.779178,22.8832 18.961805,26.10849 3.268501,0.94269 9.401637,0.96204 12.731498,0.0401 z m -11.1062,-2.84347 c -9.086779,-2.62081 -15.702303,-10.13201 -17.439824,-19.80101 -1.670955,-9.29856 3.815903,-20.23938 12.398725,-24.72311 4.793539,-2.50418 9.114723,-3.28546 13.264947,-2.39834 9.817448,2.09849 17.122515,9.84468 18.967759,20.11314 1.642737,9.14152 -3.803938,20.2121 -12.086801,24.56689 -5.599151,2.9438 -10.269199,3.63711 -15.104806,2.24243 z m 8.939136,-1.08118 c 6.854574,-1.89773 11.925513,-6.06427 14.816451,-12.17393 3.46099,-7.31442 3.46099,-12.78569 0,-20.10012 -3.008101,-6.35727 -8.587687,-10.74541 -15.764541,-12.39821 -3.806322,-0.87659 -7.696726,-0.14138 -12.505153,2.36321 -5.944266,3.09622 -10.39011,9.44239 -11.81224,16.86124 -1.604156,8.36843 3.717608,19.05986 11.538491,23.18083 5.525042,2.91124 9.204857,3.51896 13.726992,2.26698 z m 60.406888,-0.60082 c -9.08677,-2.62081 -15.7023,-10.132 -17.43982,-19.80101 -1.67095,-9.29855 3.8159,-20.23937 12.39873,-24.7231 4.79353,-2.50418 9.11472,-3.28547 13.26494,-2.39835 9.81745,2.0985 17.12252,9.84468 18.96776,20.11314 1.64274,9.14153 -3.80394,20.2121 -12.0868,24.56689 -5.59915,2.94381 -10.2692,3.63711 -15.10481,2.24243 z m 8.93914,-1.08117 c 6.85457,-1.89773 11.92551,-6.06427 14.81645,-12.17393 2.37371,-5.01658 3.10463,-9.19396 2.32255,-13.27388 -1.42213,-7.41885 -5.86798,-13.76502 -11.81224,-16.86125 -4.80843,-2.50459 -8.69883,-3.23979 -12.50516,-2.36321 -7.17685,1.6528 -12.75644,6.04094 -15.76454,12.39822 -3.46099,7.31442 -3.46099,12.78569 0,20.10012 2.83876,5.99939 7.89199,10.21475 14.54557,12.13377 3.23433,0.93284 5.14007,0.94196 8.39737,0.0402 z"
         id="path830"
         inkscape:connector-curvature="0" />
      <path
         style="fill:#333333;fill-opacity:1;stroke-width:0.55113423"
         d="m 66.826192,195.34623 c -4.271157,-1.23189 -8.271886,-3.72719 -11.637661,-7.25853 -5.447489,-5.71548 -7.865909,-11.85577 -7.865909,-19.97129 0,-8.11552 2.41842,-14.2558 7.865909,-19.97128 5.234065,-5.49155 11.168991,-8.04864 18.680617,-8.04864 7.500153,0 13.417168,2.54528 18.710648,8.04864 3.493853,3.63237 6.533702,9.10783 7.103406,12.79484 l 0.329198,2.13046 h 8.28971 8.28972 l 0.61515,-3.06654 c 1.92863,-9.61425 9.90578,-18.25629 19.23612,-20.83944 3.47386,-0.96176 10.0703,-0.96176 13.54415,0 4.48382,1.24137 8.45508,3.67533 11.90854,7.29869 5.44749,5.71547 7.86591,11.85576 7.86591,19.97128 0,8.11552 -2.41842,14.2558 -7.86591,19.97128 -5.23406,5.49155 -11.16899,8.04864 -18.68061,8.04864 -7.50016,0 -13.41717,-2.54528 -18.71065,-8.04864 -3.66487,-3.81016 -6.3421,-8.77783 -7.29755,-13.54075 l -0.61515,-3.06654 h -7.97803 -7.97804 l -0.61696,3.7274 c -1.688945,10.20395 -9.629244,19.1617 -19.377578,21.86057 -3.339342,0.92452 -10.542948,0.90358 -13.81503,-0.0401 z m 13.273264,-1.08118 c 9.677373,-2.67923 17.015164,-10.9969 18.868317,-21.38796 l 0.699041,-3.91968 h 8.892836 8.89283 l 0.98504,3.89163 c 1.33651,5.28023 3.34061,8.96161 6.9262,12.72291 13.78623,14.46183 37.49264,7.68268 42.48397,-12.14882 4.30021,-17.08551 -7.91294,-33.8873 -24.63251,-33.8873 -6.82449,0 -13.02116,2.69405 -17.85146,7.76105 -3.58559,3.76131 -5.58969,7.44269 -6.9262,12.72292 l -0.98504,3.89163 h -9.13381 -9.133811 l -0.74806,-3.025 c -1.08987,-4.40721 -3.297598,-8.32142 -6.716195,-11.90755 -9.906546,-10.39202 -25.796365,-10.39202 -35.702911,0 -5.054756,5.30247 -7.61154,11.73093 -7.61154,19.13753 0,12.17205 7.779178,22.8832 18.961805,26.10849 3.268501,0.94269 9.401637,0.96204 12.731498,0.0401 z m -11.1062,-2.84347 c -9.086779,-2.62081 -15.702303,-10.13201 -17.439824,-19.80101 -1.670955,-9.29856 3.815903,-20.23938 12.398725,-24.72311 4.793539,-2.50418 9.114723,-3.28546 13.264947,-2.39834 9.817448,2.09849 17.122515,9.84468 18.967759,20.11314 1.642737,9.14152 -3.803938,20.2121 -12.086801,24.56689 -5.599151,2.9438 -10.269199,3.63711 -15.104806,2.24243 z m 8.939136,-1.08118 c 6.854574,-1.89773 11.925513,-6.06427 14.816451,-12.17393 3.46099,-7.31442 3.46099,-12.78569 0,-20.10012 -3.008101,-6.35727 -8.587687,-10.74541 -15.764541,-12.39821 -3.806322,-0.87659 -7.696726,-0.14138 -12.505153,2.36321 -5.944266,3.09622 -10.39011,9.44239 -11.81224,16.86124 -1.604156,8.36843 3.717608,19.05986 11.538491,23.18083 5.525042,2.91124 9.204857,3.51896 13.726992,2.26698 z m 60.406888,-0.60082 c -9.08677,-2.62081 -15.7023,-10.132 -17.43982,-19.80101 -1.67095,-9.29855 3.8159,-20.23937 12.39873,-24.7231 4.79353,-2.50418 9.11472,-3.28547 13.26494,-2.39835 9.81745,2.0985 17.12252,9.84468 18.96776,20.11314 1.64274,9.14153 -3.80394,20.2121 -12.0868,24.56689 -5.59915,2.94381 -10.2692,3.63711 -15.10481,2.24243 z m 8.93914,-1.08117 c 6.85457,-1.89773 11.92551,-6.06427 14.81645,-12.17393 2.37371,-5.01658 3.10463,-9.19396 2.32255,-13.27388 -1.42213,-7.41885 -5.86798,-13.76502 -11.81224,-16.86125 -4.80843,-2.50459 -8.69883,-3.23979 -12.50516,-2.36321 -7.17685,1.6528 -12.75644,6.04094 -15.76454,12.39822 -3.46099,7.31442 -3.46099,12.78569 0,20.10012 2.83876,5.99939 7.89199,10.21475 14.54557,12.13377 3.23433,0.93284 5.14007,0.94196 8.39737,0.0402 z"
         id="path828"
         inkscape:connector-curvature="0" />
    </g>
  </g>
</svg>
